<svg width="33" height="33" viewBox="0 0 33 33" fill="none" xmlns="http://www.w3.org/2000/svg">
<path d="M32.5 16.488C32.5 12.7075 31.1812 9.22977 28.9806 6.48871L20.9363 20.4219H32.0101C32.3295 19.1628 32.5 17.845 32.5 16.488Z" fill="#171717"/>
<path d="M22.125 14.613L27.6568 5.0316C24.7724 2.22191 20.8352 0.488037 16.5 0.488037C15.6761 0.488037 14.8666 0.550725 14.0758 0.671475L22.125 14.613Z" fill="#171717"/>
<path d="M10.875 18.363L5.34314 27.9444C8.22751 30.7542 12.1648 32.488 16.5 32.488C17.3239 32.488 18.1334 32.4254 18.9241 32.3047L10.875 18.363Z" fill="#171717"/>
<path d="M15.3113 22.2969L20.8483 31.8873C25.6842 30.5199 29.5965 26.9306 31.4082 22.2969L15.3113 22.2969Z" fill="#171717"/>
<path d="M17.6887 10.6792L12.1517 1.08875C7.31586 2.45618 3.40355 6.04549 1.5918 10.6792H17.6887Z" fill="#171717"/>
<path d="M10.0631 16.0193L12.0638 12.5541H0.989938C0.670438 13.8131 0.5 15.131 0.5 16.488C0.5 20.2685 1.81881 23.7463 4.01938 26.4873L10.0631 16.0193Z" fill="#171717"/>
</svg>
