<svg width="33" height="33" viewBox="0 0 33 33" fill="none" xmlns="http://www.w3.org/2000/svg">
<path d="M31.6474 6.04818L27.2838 1.68086C26.1844 0.580473 24.2717 0.578359 23.168 1.68297L3.61972 21.4241C3.53306 21.5116 3.47054 21.6189 3.43644 21.7369L0.527397 31.9274C0.454988 32.1811 0.525965 32.4548 0.712783 32.6418C0.851261 32.7804 1.03665 32.855 1.22701 32.855C1.29376 32.855 1.36126 32.8458 1.42658 32.8273L11.6084 29.9157C11.7263 29.8816 11.8335 29.819 11.9209 29.7323L31.6474 10.1653C32.1972 9.61512 32.4997 8.88434 32.4997 8.10673C32.4997 7.32911 32.1972 6.59834 31.6474 6.04818Z" fill="#171717"/>
<path d="M8.69446 23.6275L7.69137 21.6207C7.56776 21.3742 7.31637 21.2187 7.04078 21.2187H5.8761L19.9944 6.97336L22.6715 9.65045L8.69446 23.6275Z" fill="#FFCA28"/>
<path d="M11.7298 25.6591L9.7229 24.656L23.6999 10.679L26.377 13.356L12.1318 27.4743V26.3096C12.1318 26.0341 11.9762 25.7827 11.7298 25.6591Z" fill="#FFCA28"/>
<path d="M24.1942 2.73571C24.744 2.18596 25.7013 2.18596 26.2511 2.73571L30.6147 7.09935C30.8896 7.37419 31.0409 7.73923 31.0409 8.12773C31.0409 8.51623 30.8896 8.88128 30.6168 9.15401L27.41 12.3322L21.0182 5.94032L24.1942 2.73571Z" fill="#D32F2F"/>
<path d="M8.17441 25.509C8.10411 25.4739 7.88429 25.254 7.84911 25.1838L6.59559 22.6766H4.68438L3.06567 28.343L5.09429 30.27L10.6816 28.6738V26.7626L8.17441 25.509Z" fill="#F2F2F2"/>
<path d="M5.09416 30.27L3.06562 28.343L3.23321 27.7561L2.28589 31.0723L5.60198 30.1249L5.09416 30.27Z" fill="#171717"/>
<path opacity="0.1" d="M10.6815 26.7627L8.17435 25.5091C8.10405 25.474 8.06669 25.4015 8.01173 25.3465L2.28589 31.0724L10.6815 28.6739V26.7627Z" fill="#171717"/>
<path opacity="0.1" d="M28.4373 4.92102L24.2185 9.13977L27.4145 12.3357L30.6213 9.15757C30.894 8.88484 31.0453 8.5198 31.0453 8.1313C31.0453 7.7428 30.894 7.37775 30.6191 7.10291L28.4373 4.92102Z" fill="#171717"/>
<path opacity="0.1" d="M11.734 25.6625L9.72717 24.6594L23.7042 10.6824L26.3813 13.3595L12.136 27.4777V26.3131C12.136 26.0375 11.9804 25.7861 11.734 25.6625Z" fill="#171717"/>
<path d="M31.6474 6.04818L27.2838 1.68086C26.1844 0.580473 24.2717 0.578359 23.168 1.68297L3.61972 21.4241C3.53306 21.5116 3.47054 21.6189 3.43644 21.7369L0.527397 31.9274C0.454988 32.1811 0.525965 32.4548 0.712783 32.6418C0.851261 32.7804 1.03665 32.855 1.22701 32.855C1.29376 32.855 1.36126 32.8458 1.42658 32.8273L11.6084 29.9157C11.7263 29.8816 11.8335 29.819 11.9209 29.7323L31.6474 10.1653C32.1972 9.61512 32.4997 8.88434 32.4997 8.10673C32.4997 7.32911 32.1972 6.59834 31.6474 6.04818Z" fill="url(#paint0_linear)"/>
<defs>
<linearGradient id="paint0_linear" x1="7.09132" y1="13.8766" x2="26.0045" y2="22.6923" gradientUnits="userSpaceOnUse">
<stop stop-color="white" stop-opacity="0.2"/>
<stop offset="1" stop-color="white" stop-opacity="0"/>
</linearGradient>
</defs>
</svg>
