<svg width="33" height="33" viewBox="0 0 33 33" fill="none" xmlns="http://www.w3.org/2000/svg">
<path d="M27.0984 32.488H5.90181C2.68813 32.488 0.0898438 29.8897 0.0898438 26.6761V6.3C0.0898438 3.08633 2.68813 0.488037 5.90181 0.488037H27.0984C30.3121 0.488037 32.9104 3.08633 32.9104 6.3V26.6761C32.9104 29.8897 30.3121 32.488 27.0984 32.488Z" fill="#26C9FF"/>
<path d="M26.5788 31.1205H6.4215C3.68646 31.1205 1.4574 28.8915 1.4574 26.1427V6.83334C1.4574 4.08462 3.68646 1.85556 6.4215 1.85556H26.5651C29.3138 1.85556 31.5292 4.08462 31.5292 6.81966V26.1427C31.5429 28.8915 29.3138 31.1205 26.5788 31.1205Z" fill="#062026"/>
<path d="M8.02148 7.98205C8.02148 7.88633 8.21294 7.81795 8.32234 7.81795C9.19755 7.77692 10.4967 7.74957 11.8505 7.74957C15.6386 7.74957 17.1155 9.82821 17.1155 12.4949C17.1155 15.9684 14.5993 17.459 11.5087 17.459C10.989 17.459 10.8112 17.4316 10.442 17.4316V22.6829C10.442 22.7923 10.401 22.847 10.2779 22.847H8.18559C8.07619 22.847 8.02148 22.806 8.02148 22.6829V7.98205ZM10.4557 15.2436C10.7702 15.2709 11.0164 15.2709 11.5634 15.2709C13.1634 15.2709 14.6676 14.7103 14.6676 12.5359C14.6676 10.7991 13.5873 9.92393 11.7685 9.92393C11.2215 9.92393 10.7018 9.95128 10.4557 9.96496V15.2436ZM22.2164 13.6162C21.136 13.6162 20.7668 14.1632 20.7668 14.6145C20.7668 15.1068 21.0129 15.4487 22.4625 16.2009C24.6095 17.2402 25.2796 18.2385 25.2796 19.7017C25.2796 21.8897 23.6112 23.0658 21.3548 23.0658C20.1651 23.0658 19.1394 22.8197 18.5514 22.4778C18.4557 22.4368 18.442 22.3684 18.442 22.259V20.2487C18.442 20.112 18.5104 20.0709 18.6061 20.1393C19.4676 20.7 20.4523 20.9462 21.3548 20.9462C22.4352 20.9462 22.8864 20.4949 22.8864 19.8795C22.8864 19.3872 22.5719 18.9496 21.1907 18.2385C19.2488 17.3085 18.442 16.365 18.442 14.7923C18.442 13.0282 19.8232 11.565 22.2164 11.565C23.3924 11.565 24.2129 11.7427 24.6642 11.9479C24.7736 12.0162 24.801 12.1256 24.801 12.2214V14.0949C24.801 14.2043 24.7326 14.2727 24.5958 14.2316C23.9941 13.8487 23.1052 13.6162 22.2164 13.6162Z" fill="#D9F5FF"/>
</svg>
