<svg width="16" height="17" viewBox="0 0 16 17" fill="none" xmlns="http://www.w3.org/2000/svg">
<g clip-path="url(#clip0)">
<path d="M11.7449 8.28054C11.6731 9.32263 11.0789 10.0542 10.3928 10.3643C9.66538 10.6929 8.93008 10.5117 8.56297 9.91304C7.96192 8.93285 8.37493 8.25066 8.77431 7.59091C9.22717 6.84282 9.74049 5.99488 9.24816 4.34594C8.85949 3.04416 8.0983 1.95126 6.9857 1.09757C6.63886 0.831475 6.30992 0.63135 6.04297 0.488037C6.41582 1.3956 6.90068 3.08444 6.39421 4.95032C6.07299 6.13385 5.22405 7.03072 4.40304 7.89807C3.3217 9.04051 2.20349 10.2218 2.20349 12.1093C2.20349 13.5735 2.71364 14.74 3.71972 15.5762C4.48159 16.2095 5.25902 16.4561 5.26677 16.458H7.12185L7.08302 16.4573C7.07586 16.4517 6.36912 15.8938 6.35695 15.2541C6.35128 14.955 6.50821 14.6682 6.82337 14.4015C7.29677 14.0009 7.55695 13.5696 7.61885 13.0829C7.6567 12.7853 7.61843 12.4707 7.50212 12.131C8.28729 12.4603 9.09948 13.1793 9.37471 14.0718C9.62189 14.8734 9.39324 15.6977 8.71411 16.458H10.7443C12.0742 15.4162 12.8228 14.1676 12.9696 12.7471C13.1567 10.9359 12.3286 9.23004 11.7449 8.28054Z" fill="#171717"/>
<path d="M7.12189 16.458L8.6874 16.488C8.69649 16.4781 8.70519 16.468 8.71412 16.458H7.12189Z" fill="#171717"/>
</g>
<defs>
<clipPath id="clip0">
<rect width="15.2" height="16" fill="white" transform="translate(0 0.488037)"/>
</clipPath>
</defs>
</svg>
