<svg width="11" height="17" viewBox="0 0 11 17" fill="none" xmlns="http://www.w3.org/2000/svg">
<path d="M9.74487 8.42653C9.67315 9.46863 9.07892 10.2002 8.39285 10.5103C7.66538 10.8389 6.93008 10.6577 6.56297 10.059C5.96192 9.07885 6.37493 8.39666 6.77431 7.73691C7.22717 6.98881 7.74049 6.14088 7.24816 4.49194C6.85949 3.19016 6.0983 2.09725 4.9857 1.24356C4.63886 0.977471 4.30992 0.777346 4.04297 0.634033C4.41582 1.5416 4.90068 3.23044 4.39421 5.09631C4.07299 6.27985 3.22405 7.17672 2.40304 8.04406C1.3217 9.1865 0.203491 10.3678 0.203491 12.2553C0.203491 13.7195 0.713641 14.886 1.71972 15.7222C2.48159 16.3555 3.25902 16.6021 3.26677 16.604H5.12185L5.08302 16.6033C5.07586 16.5977 4.36912 16.0398 4.35695 15.4001C4.35128 15.101 4.50821 14.8142 4.82337 14.5475C5.29677 14.1469 5.55695 13.7156 5.61885 13.2289C5.6567 12.9313 5.61843 12.6167 5.50212 12.277C6.28729 12.6063 7.09948 13.3253 7.37471 14.2178C7.62189 15.0194 7.39324 15.8437 6.71411 16.604H8.74432C10.0742 15.5622 10.8228 14.3136 10.9696 12.8931C11.1567 11.0819 10.3286 9.37603 9.74487 8.42653Z" fill="#171717"/>
</svg>
