<svg width="126" height="126" viewBox="0 0 126 126" fill="none" xmlns="http://www.w3.org/2000/svg">
<g clip-path="url(#clip0)">
<path d="M124.907 114.563L115.478 66.0801C115.201 64.5887 113.89 63.5017 112.377 63.5017H107.259L106.805 60.7211C106.578 59.3561 105.519 58.2944 104.158 58.0922C103.906 58.0417 103.679 58.0164 103.427 57.9911C103.276 57.9658 103.099 57.9406 102.948 57.9406L101.738 57.7636L101.99 56.5755C102.645 53.5422 102.116 50.433 100.502 47.7788L100.2 47.2985L100.401 46.7677C101.208 44.6696 101.057 42.3187 99.998 40.347C98.9391 38.3753 97.0482 36.9598 94.8548 36.4795L94.1237 36.3278L93.9976 35.5695C92.4849 27.4805 85.4256 21.5654 77.2318 21.5149C77.1561 21.5149 77.0553 21.5149 76.9797 21.5402C76.8788 21.5402 76.778 21.5654 76.6771 21.5654L76.0216 21.5907L75.6687 21.0346C74.4333 19.1135 72.4415 17.8496 70.1725 17.5462C67.9034 17.2682 65.6596 18.0012 63.9956 19.5685L63.3401 20.1751L62.5837 19.6949C60.3651 18.254 57.7935 17.4957 55.1715 17.4957C50.9107 17.5209 46.9524 19.4674 44.3304 22.8546L43.8514 23.4613L43.1202 23.2338C40.2965 22.4249 37.3215 22.9052 34.9264 24.5988C32.5313 26.2924 31.0438 28.9466 30.8673 31.8789L30.8169 32.5867L30.1614 32.8647C27.2872 34.0781 25.4468 36.8839 25.4216 39.9931C25.4216 40.524 25.4972 41.0548 25.5981 41.5857L25.6989 42.0659L25.4216 42.4704C22.6987 46.5907 21.9928 51.6716 23.4803 56.3733L23.8837 57.6625L22.5474 57.8394C22.3205 57.8647 22.0684 57.89 21.8415 57.9406C21.5137 57.9911 21.1608 58.0417 20.833 58.067C19.4716 58.2692 18.3875 59.3309 18.1606 60.6959L17.7068 63.4765H12.6392C11.1265 63.4765 9.81548 64.5634 9.53815 66.0548L0.108942 114.563C-0.193599 116.131 0.20979 117.748 1.21826 118.987C2.22673 120.226 3.73944 120.933 5.32778 120.933H50.835L51.1628 121.49C52.5242 123.739 57.0876 125.256 62.4829 125.256C67.853 125.256 72.3659 123.739 73.7526 121.49L74.0803 120.959H119.638C121.226 120.959 122.714 120.251 123.748 119.012C124.806 117.748 125.21 116.131 124.907 114.563ZM25.951 45.8576L26.6065 44.2904L27.7915 45.5038C28.1949 45.9335 28.6739 46.2874 29.1781 46.616C29.6572 46.894 30.2622 46.7424 30.5648 46.2621C30.8421 45.8071 30.716 45.251 30.3127 44.9224L30.237 44.8718C28.0688 43.5573 27.0099 40.9284 27.6906 38.4765C28.3714 36.0245 30.6152 34.3056 33.1364 34.3056H33.1616C34.9264 34.3056 36.6156 35.165 37.6745 36.6059C37.8762 36.8839 38.2544 37.0356 38.6073 37.0103C38.9603 36.9598 39.2881 36.7323 39.4141 36.4037C39.5654 36.075 39.515 35.6959 39.2881 35.3925C38.0275 33.6989 36.0862 32.6119 33.9936 32.3844L32.733 32.2581L32.9851 31.0194C33.7415 27.5058 36.8929 24.9274 40.473 24.9274H40.4982H40.5234C40.826 24.9527 41.1285 24.978 41.4311 25.0285L42.8177 25.256L42.3135 26.5705C42.1622 26.9749 42.0109 27.3794 41.9101 27.7838C41.784 28.3147 42.1118 28.8455 42.6412 28.9972C43.1707 29.1236 43.7253 28.8202 43.8766 28.2894C44.1539 27.253 44.5573 26.2672 45.112 25.3066C47.2045 21.7677 51.062 19.5685 55.1463 19.5432C57.4153 19.5432 59.5835 20.2257 61.4744 21.4643L62.2308 21.9446L61.9282 22.7788C61.6509 23.5624 61.4996 24.3966 61.4996 25.2308C61.4996 25.7869 61.9534 26.2419 62.5081 26.2419C63.0628 26.2419 63.5166 25.7869 63.5166 25.2308C63.5166 22.0963 66.063 19.5432 69.164 19.5432C72.2903 19.5432 74.8367 22.0963 74.8367 25.2308C74.8367 25.7869 75.2905 26.2419 75.8451 26.2419C76.3998 26.2419 76.8536 25.7869 76.8536 25.2308C76.8536 25.2055 76.8536 25.1549 76.8284 25.1296C76.8032 25.0285 76.8032 24.9274 76.8032 24.801L76.7275 23.5371L77.9881 23.613C84.5936 24.0174 90.2663 28.8202 91.7538 35.2914L92.0059 36.3531L90.9722 36.6564C90.0898 36.9092 89.283 37.3137 88.5519 37.8698C88.2745 38.0973 88.0981 38.4512 88.1485 38.8051C88.1989 39.159 88.4258 39.4876 88.7536 39.614C89.0813 39.7656 89.4847 39.7151 89.762 39.4876C91.905 37.8951 94.9052 38.0215 96.897 39.7909C98.8887 41.5604 99.3929 44.5179 98.0819 46.8435C97.5021 47.8799 96.6196 48.6888 95.5355 49.1944C95.1321 49.3966 94.9052 49.8769 95.0061 50.3319C95.1069 50.7869 95.5103 51.1155 95.9893 51.1408C96.1154 51.1408 96.2667 51.1155 96.4179 51.0396C96.897 50.8121 97.376 50.5088 97.8046 50.1549L99.04 49.1691L99.5694 50.6605C100.83 54.2247 100.048 58.1933 97.5273 60.9992L97.4516 61.075C94.3506 64.4623 89.283 65.3723 85.1483 63.3248L85.1231 63.2995C84.7197 63.072 84.3163 62.8445 83.9381 62.5664L83.0305 61.9092L83.686 60.9992C85.0222 59.1033 85.2239 56.6514 84.165 54.5786C84.0137 54.25 83.686 54.0477 83.3078 54.0225C82.9549 53.9972 82.6019 54.1741 82.4002 54.4775C82.1985 54.7808 82.1733 55.1853 82.3498 55.4886C83.3078 57.4097 82.7027 59.7859 80.9379 60.9992C79.879 61.707 78.6184 61.9092 77.4083 61.6059C76.1981 61.3025 75.1896 60.4936 74.6098 59.3814C74.4333 59.0275 74.1055 58.8253 73.7526 58.8C73.3996 58.7747 73.0466 58.9517 72.8449 59.255C72.6432 59.5584 72.618 59.9375 72.7945 60.2661C73.8786 62.4401 76.0468 63.8051 78.4672 63.8051H78.4924C79.2739 63.8051 80.0303 63.6534 80.7614 63.3501L81.4169 63.0973L81.9464 63.5523C82.6523 64.159 83.4087 64.6898 84.2407 65.1195C87.0644 66.5857 90.2915 66.889 93.3169 65.9537L96.5692 64.9679L94.5523 67.7232C92.2328 70.8829 88.8292 72.981 84.9718 73.613C84.4676 73.6888 84.0894 74.1691 84.1146 74.6999C84.165 75.2308 84.5936 75.6352 85.1231 75.6352C85.1735 75.6352 85.2239 75.6352 85.2995 75.6352C86.5097 75.433 87.6947 75.0791 88.8544 74.5988L89.7873 74.1944L90.2915 75.0791C90.9974 76.3177 91.5521 77.6322 91.9807 78.9972C92.0815 79.3258 92.1319 79.6797 92.1572 80.0336C92.1572 81.4239 91.3252 82.6878 90.0646 83.2186L90.0394 83.2439C89.6108 83.3956 89.1822 83.4967 88.7536 83.4967C87.6947 83.4967 86.6862 83.0164 85.9803 82.1822C84.4424 80.3875 82.4506 79.0477 80.2068 78.34C75.6939 76.8233 73.3492 75.3066 72.3407 73.2843L71.6096 71.8435L73.1979 71.6413C74.2568 71.5149 75.2905 71.2874 76.3242 70.984C76.6519 70.8829 76.9292 70.6049 77.0049 70.251C77.0805 69.8971 76.9797 69.5179 76.7023 69.2651C76.425 69.0124 76.0468 68.9365 75.7191 69.0376C74.4333 69.4421 73.0971 69.6696 71.7356 69.7707C69.164 69.9729 66.5168 69.5685 64.1217 68.6079C63.7183 68.4562 63.2645 68.5573 62.9871 68.886C59.4323 72.981 53.4823 73.6635 49.0954 70.4785C44.7338 67.2934 43.5236 61.4037 46.2969 56.7525C46.4986 56.4492 46.4986 56.0447 46.3221 55.7161C46.1457 55.3875 45.8179 55.1852 45.4397 55.1852C45.0868 55.1852 44.7338 55.3622 44.5573 55.6908C44.1035 56.4744 43.7253 57.3339 43.4228 58.2186L43.1707 59.0528L42.2883 59.0022C40.0192 58.8758 38.2039 57.0053 38.1535 54.705V54.6291C38.1535 54.3764 38.0527 54.0983 37.851 53.9213C37.6745 53.7444 37.3972 53.6433 37.1451 53.6433C36.5652 53.6433 36.1114 54.1236 36.1114 54.6797C36.1114 57.9406 38.5569 60.6453 41.784 60.9992L42.7925 61.1003V62.1114C42.7925 62.7687 42.8681 63.4259 42.969 64.0831L43.1455 65.1448L42.0866 65.3723C36.8425 66.5098 31.4724 64.6392 28.0436 60.4936C24.64 56.4492 23.8332 50.7869 25.951 45.8576ZM50.8098 118.861H5.32778C4.34452 118.861 3.41169 118.431 2.78139 117.647C2.1511 116.889 1.89898 115.903 2.10067 114.943L11.7064 65.524H17.4042L10.4458 107.536C10.2693 108.623 10.6727 109.71 11.5047 110.443C12.3367 111.176 13.4712 111.404 14.5301 111.075C26.1275 107.309 38.6073 106.525 50.6081 108.775L51.6166 108.977L50.8098 118.861ZM72.0634 120.428C71.2062 121.768 67.3992 123.183 62.5081 123.183C57.617 123.183 53.81 121.793 52.9528 120.428L52.7511 120.099L53.6336 109.432L54.9194 109.761C57.3397 110.367 59.7096 111.176 62.0039 112.137L62.0543 112.162C62.1804 112.238 62.3568 112.263 62.5081 112.263C62.6594 112.263 62.8106 112.238 62.9367 112.162L62.9871 112.137C65.2814 111.151 67.6765 110.342 70.0716 109.735L71.3574 109.407L72.2399 120.099L72.0634 120.428ZM65.0041 109.129L63.5166 109.634V81.1205C63.5166 80.5897 63.1384 80.1094 62.6089 80.0589C62.0039 80.0083 61.4744 80.4633 61.4744 81.07V109.659L59.9869 109.154C45.1372 104.174 28.7747 104.174 13.925 109.129C13.7989 109.179 13.6729 109.179 13.572 109.179C12.8913 109.179 12.3367 108.573 12.4627 107.865L20.354 60.1903L21.1608 60.0639C21.9676 59.9375 22.8248 59.8364 23.6315 59.7353L24.9425 59.5584L25.3207 60.1903C29.0521 66.1559 36.1366 69.0376 42.9438 67.3693L43.801 67.167L44.2043 67.9507C45.9944 71.3379 49.2971 73.7393 53.0537 74.3966C56.8102 75.0285 60.7433 73.8657 63.5418 71.2368L64.0208 70.7818L64.6511 70.9588C66.0378 71.3632 67.4496 71.616 68.8867 71.7171L69.6935 71.7677L69.8952 72.5513C70.828 76.0649 73.5004 78.2136 79.5008 80.2358C81.3917 80.8172 83.0809 81.9547 84.3667 83.4714C85.4508 84.7606 87.0392 85.5189 88.7031 85.5189C89.4343 85.5189 90.1402 85.3673 90.7957 85.0892C92.8127 84.2297 94.1237 82.2328 94.1237 80.0336C94.1237 79.4522 94.0228 78.8961 93.8464 78.34C93.3925 76.8738 92.7622 75.4835 92.0311 74.1438L91.5269 73.2591L92.3588 72.6524C95.7877 70.1751 98.1828 66.5351 99.0652 62.3895L99.1156 62.1114L99.2921 61.8839C99.7207 61.3784 100.099 60.8475 100.427 60.2914L100.805 59.6595L102.015 59.8111C102.57 59.887 103.175 59.9628 103.755 60.0639L104.561 60.1903L112.453 107.839C112.579 108.674 111.772 109.381 110.965 109.103C103.528 106.626 95.7372 105.362 87.9468 105.362C80.232 105.413 72.4415 106.651 65.0041 109.129ZM122.21 117.673C121.579 118.431 120.646 118.886 119.663 118.886H74.2064L73.3996 108.977L74.4081 108.775C86.4089 106.5 98.9139 107.309 110.511 111.1C111.545 111.429 112.68 111.176 113.537 110.443C114.369 109.71 114.772 108.623 114.596 107.536L107.637 65.5493H113.36L122.966 114.968C123.092 115.928 122.84 116.914 122.21 117.673Z" fill="#171717"/>
<path d="M72.2651 120.099L72.0634 120.428C71.2062 121.768 67.3992 123.183 62.5081 123.183C57.617 123.183 53.8101 121.793 52.9529 120.428L52.7512 120.099L53.6336 109.432L54.9194 109.761C57.3397 110.367 59.7096 111.176 62.0039 112.137L62.0543 112.162C62.1804 112.238 62.3568 112.263 62.5081 112.263C62.6594 112.263 62.8107 112.238 62.9367 112.162L62.9871 112.137C65.2814 111.151 67.6765 110.342 70.0716 109.735L71.3574 109.407L72.2651 120.099Z" fill="#171717"/>
<path d="M76.3997 44.5937C75.4669 49.4471 71.5591 53.2388 66.7184 54.0477L66.0629 54.1488L65.836 54.7555C64.4493 58.4714 60.8693 60.9486 56.911 60.9486H56.8858C56.3311 60.9486 55.8773 60.4936 55.8773 59.9375C55.8773 59.3814 56.3311 58.9264 56.8858 58.9264C59.3313 58.9264 61.6256 57.7383 63.0375 55.7413L64.0459 54.3258L62.3568 53.9719C59.9112 53.441 57.743 52.2024 56.0538 50.3318C55.8773 50.1296 55.8017 49.9021 55.8017 49.6493C55.8017 49.3713 55.9278 49.0932 56.1295 48.891C56.5581 48.5118 57.1883 48.5371 57.5665 48.9668C60.9197 52.5563 66.2898 53.163 70.3741 50.4329C72.4919 48.9668 73.929 46.7676 74.408 44.2145C74.4584 43.8606 74.7105 43.5573 75.0635 43.4309C75.4165 43.3045 75.7946 43.3804 76.072 43.6331C76.3745 43.8354 76.5006 44.2145 76.3997 44.5937Z" fill="#171717"/>
<path d="M56.6338 35.7717C56.6338 36.3278 56.18 36.7828 55.6253 36.7828C53.8353 36.7828 52.1461 37.4906 50.8603 38.7545C49.5745 40.0184 48.8938 41.7373 48.8938 43.532C48.8938 44.0881 48.44 44.5431 47.8853 44.5431C47.608 44.5431 47.3559 44.442 47.1794 44.2398C46.9777 44.0376 46.8768 43.7848 46.8768 43.532C46.8768 38.6786 50.8099 34.7605 55.6505 34.7353C56.18 34.7353 56.6338 35.1903 56.6338 35.7717Z" fill="#171717"/>
<path d="M63.5166 1.24184V3.39047C63.5166 3.94659 63.0628 4.40159 62.5082 4.40159C61.9535 4.40159 61.4997 3.94659 61.4997 3.39047V1.24184C61.4997 0.685718 61.9535 0.230713 62.5082 0.230713C63.0628 0.230713 63.5166 0.685718 63.5166 1.24184Z" fill="#171717"/>
<path d="M100.048 16.8131L97.8803 18.987C97.6281 19.2398 97.25 19.3662 96.897 19.2651C96.544 19.164 96.2667 18.8859 96.1658 18.532C96.065 18.1781 96.1658 17.799 96.4432 17.5209L98.5862 15.3723H98.6114C98.8131 15.1701 99.0652 15.0689 99.3425 15.0689C99.4182 15.0689 99.519 15.0689 99.5947 15.0942C99.9476 15.1953 100.225 15.4734 100.326 15.8273C100.427 16.1559 100.326 16.5351 100.048 16.8131Z" fill="#171717"/>
<path d="M28.7746 18.6332C28.6234 19.0123 28.2452 19.2651 27.8418 19.2651C27.5645 19.2651 27.3123 19.164 27.1359 18.9618L24.9676 16.7879C24.6903 16.5351 24.5895 16.1559 24.6903 15.802C24.7912 15.4481 25.0685 15.1701 25.4215 15.0689C25.4971 15.0437 25.5979 15.0437 25.6736 15.0437C25.9509 15.0437 26.203 15.1448 26.4299 15.3723L28.5729 17.5209C28.8503 17.8243 28.9259 18.254 28.7746 18.6332Z" fill="#171717"/>
<path d="M45.3387 9.55828C45.2379 9.81106 45.0362 10.0133 44.7841 10.1144C44.658 10.165 44.532 10.1902 44.3807 10.1902C43.9773 10.1902 43.5991 9.93746 43.4479 9.55828L40.9771 3.54211C40.8258 3.21349 40.8762 2.80904 41.1032 2.50571C41.3048 2.25293 41.6074 2.10126 41.9099 2.10126C41.9604 2.10126 42.0108 2.10126 42.0612 2.10126C42.4142 2.15181 42.7419 2.40459 42.868 2.75849L45.3387 8.74939C45.4396 9.02744 45.4396 9.3055 45.3387 9.55828Z" fill="#171717"/>
<path d="M84.0389 3.59272L81.5681 9.58362C81.4925 9.78584 81.3664 9.93751 81.19 10.0386C81.0387 10.1397 80.837 10.2156 80.6353 10.2156C80.5092 10.2156 80.358 10.1903 80.2571 10.1397C80.005 10.0386 79.8033 9.8364 79.7025 9.58362C79.6016 9.33084 79.6016 9.05278 79.7025 8.8L82.1732 2.83437C82.3245 2.42993 82.7279 2.20242 83.1061 2.20242C83.2321 2.20242 83.3582 2.2277 83.4842 2.27826C83.7364 2.37937 83.938 2.58159 84.0389 2.83437C84.1397 3.06188 84.1397 3.33994 84.0389 3.59272Z" fill="#171717"/>
<path d="M113.209 32.5108C113.159 32.8647 112.932 33.1933 112.579 33.3197L106.603 35.7969C106.477 35.8475 106.351 35.8728 106.225 35.8728C105.746 35.8728 105.318 35.5189 105.217 35.0639C105.116 34.5836 105.368 34.1033 105.822 33.9263L111.797 31.4491C111.923 31.3985 112.049 31.3733 112.175 31.3733C112.402 31.3733 112.604 31.4491 112.806 31.5755C113.108 31.803 113.259 32.1569 113.209 32.5108Z" fill="#171717"/>
<path d="M19.7235 35.2408C19.5218 35.7717 18.9167 35.9992 18.3873 35.797L12.4121 33.3197C12.16 33.2186 11.9583 33.0164 11.8574 32.7636C11.7566 32.5108 11.7566 32.2328 11.8574 31.98C11.9583 31.7272 12.16 31.525 12.4121 31.4239C12.5382 31.3733 12.6642 31.348 12.7903 31.348C12.9163 31.348 13.0676 31.3733 13.1684 31.4239L19.1436 33.9011C19.3958 34.0022 19.5975 34.2044 19.6983 34.4572C19.8244 34.71 19.8244 34.9881 19.7235 35.2408Z" fill="#171717"/>
</g>
<defs>
<clipPath id="clip0">
<rect width="125" height="125" fill="white" transform="translate(0.00805664 0.230713)"/>
</clipPath>
</defs>
</svg>
