<svg width="24" height="29" viewBox="0 0 24 29" fill="none" xmlns="http://www.w3.org/2000/svg">
<path d="M12.3396 0.753258C8.5533 0.753258 5.4729 3.97693 5.4729 7.93933C5.4729 11.9017 8.5533 15.1254 12.3396 15.1254C16.1259 15.1254 19.2063 11.9017 19.2063 7.93933C19.2063 3.97693 16.1259 0.753258 12.3396 0.753258ZM12.3396 13.5285C9.3947 13.5285 6.99883 11.0212 6.99883 7.93933C6.99883 4.85747 9.3947 2.35016 12.3396 2.35016C15.2845 2.35016 17.6804 4.85747 17.6804 7.93933C17.6804 11.0212 15.2845 13.5285 12.3396 13.5285Z" fill="#FEFEFE"/>
<path d="M20.8831 19.8201C19.0032 17.8224 16.511 16.7223 13.8656 16.7223H10.8137C8.16835 16.7223 5.67609 17.8224 3.79614 19.8201C1.9254 21.8079 0.895142 24.4318 0.895142 27.2087C0.895142 27.6496 1.23675 28.0071 1.65811 28.0071H23.0212C23.4425 28.0071 23.7841 27.6496 23.7841 27.2087C23.7841 24.4318 22.7539 21.8079 20.8831 19.8201ZM2.45464 26.4102C2.83689 21.8811 6.43992 18.3192 10.8137 18.3192H13.8656C18.2393 18.3192 21.8424 21.8811 22.2246 26.4102H2.45464Z" fill="#FEFEFE"/>
</svg>
