<svg width="40" height="41" viewBox="0 0 40 41" fill="none" xmlns="http://www.w3.org/2000/svg">
<path d="M13.873 17.8395C13.873 18.3008 13.7503 18.7113 13.5049 19.071C13.2637 19.4307 12.9357 19.7121 12.521 19.9152C13.0034 20.1225 13.3843 20.4251 13.6636 20.8229C13.9471 21.2207 14.0889 21.6714 14.0889 22.175C14.0889 22.9748 13.818 23.6116 13.2764 24.0856C12.7389 24.5596 12.0301 24.7965 11.1499 24.7965C10.2612 24.7965 9.54818 24.5596 9.01074 24.0856C8.47754 23.6074 8.21094 22.9705 8.21094 22.175C8.21094 21.6756 8.34635 21.2249 8.61719 20.8229C8.89225 20.4209 9.271 20.1162 9.75342 19.9088C9.34294 19.7057 9.01921 19.4243 8.78223 19.0646C8.54525 18.7049 8.42676 18.2965 8.42676 17.8395C8.42676 17.0609 8.67643 16.443 9.17578 15.986C9.67513 15.529 10.3332 15.3004 11.1499 15.3004C11.9624 15.3004 12.6183 15.529 13.1177 15.986C13.6213 16.443 13.873 17.0609 13.873 17.8395ZM12.9146 22.1496C12.9146 21.6333 12.7495 21.2122 12.4194 20.8864C12.0936 20.5605 11.6662 20.3976 11.1372 20.3976C10.6082 20.3976 10.1829 20.5584 9.86133 20.88C9.54395 21.2016 9.38525 21.6248 9.38525 22.1496C9.38525 22.6743 9.53971 23.0869 9.84863 23.3874C10.1618 23.6878 10.5955 23.838 11.1499 23.838C11.7 23.838 12.1317 23.6878 12.4448 23.3874C12.758 23.0827 12.9146 22.6701 12.9146 22.1496ZM11.1499 16.2653C10.6886 16.2653 10.3141 16.4092 10.0264 16.6969C9.74284 16.9805 9.60107 17.3677 9.60107 17.8586C9.60107 18.3283 9.74072 18.7091 10.02 19.0011C10.3035 19.2889 10.6802 19.4328 11.1499 19.4328C11.6196 19.4328 11.9941 19.2889 12.2734 19.0011C12.557 18.7091 12.6987 18.3283 12.6987 17.8586C12.6987 17.3888 12.5527 17.0058 12.2607 16.7096C11.9688 16.4134 11.5985 16.2653 11.1499 16.2653ZM17.2754 19.4772H18.1577C18.7121 19.4687 19.1479 19.3227 19.4653 19.0392C19.7827 18.7557 19.9414 18.3727 19.9414 17.8903C19.9414 16.807 19.4019 16.2653 18.3228 16.2653C17.8149 16.2653 17.4087 16.4113 17.104 16.7033C16.8035 16.991 16.6533 17.374 16.6533 17.8522H15.479C15.479 17.1201 15.7456 16.5128 16.2788 16.0304C16.8162 15.5438 17.4976 15.3004 18.3228 15.3004C19.1945 15.3004 19.8779 15.5311 20.373 15.9923C20.8682 16.4536 21.1157 17.0947 21.1157 17.9157C21.1157 18.3177 20.9845 18.707 20.7222 19.0836C20.464 19.4603 20.1107 19.7417 19.6621 19.9279C20.1699 20.0887 20.5614 20.3553 20.8364 20.7277C21.1157 21.1001 21.2554 21.555 21.2554 22.0924C21.2554 22.9219 20.9845 23.5799 20.4429 24.0666C19.9012 24.5532 19.1966 24.7965 18.3291 24.7965C17.4616 24.7965 16.7549 24.5617 16.209 24.0919C15.6673 23.6222 15.3965 23.0023 15.3965 22.2321H16.5771C16.5771 22.7187 16.7358 23.1081 17.0532 23.4001C17.3706 23.692 17.7959 23.838 18.3291 23.838C18.8962 23.838 19.3299 23.6899 19.6304 23.3937C19.9308 23.0975 20.0811 22.6722 20.0811 22.1178C20.0811 21.5804 19.916 21.1678 19.5859 20.88C19.2559 20.5923 18.7798 20.4442 18.1577 20.4357H17.2754V19.4772ZM22.7661 17.2047C22.7661 16.6504 22.9417 16.1933 23.293 15.8336C23.6484 15.4739 24.1034 15.2941 24.6577 15.2941C25.2205 15.2941 25.6755 15.4761 26.0225 15.84C26.3737 16.1997 26.5493 16.6673 26.5493 17.2428V17.6935C26.5493 18.2521 26.3716 18.7091 26.0161 19.0646C25.6649 19.4158 25.2163 19.5915 24.6704 19.5915C24.1203 19.5915 23.6654 19.4158 23.3057 19.0646C22.946 18.7091 22.7661 18.2373 22.7661 17.6491V17.2047ZM23.6421 17.6935C23.6421 18.0236 23.7352 18.2965 23.9214 18.5124C24.1076 18.7239 24.3573 18.8297 24.6704 18.8297C24.9709 18.8297 25.2121 18.7261 25.394 18.5187C25.5802 18.3114 25.6733 18.0278 25.6733 17.6681V17.2047C25.6733 16.8747 25.5824 16.6017 25.4004 16.3859C25.2184 16.1701 24.9709 16.0622 24.6577 16.0622C24.3446 16.0622 24.097 16.1701 23.915 16.3859C23.7331 16.6017 23.6421 16.8831 23.6421 17.2301V17.6935ZM27.2666 22.4035C27.2666 21.8491 27.4422 21.3942 27.7935 21.0387C28.1489 20.679 28.6038 20.4992 29.1582 20.4992C29.7126 20.4992 30.1675 20.6769 30.5229 21.0324C30.8784 21.3878 31.0562 21.8597 31.0562 22.4479V22.8986C31.0562 23.453 30.8784 23.91 30.5229 24.2697C30.1717 24.6252 29.721 24.8029 29.1709 24.8029C28.6208 24.8029 28.1659 24.6273 27.8062 24.276C27.4465 23.9206 27.2666 23.4487 27.2666 22.8605V22.4035ZM28.1426 22.8986C28.1426 23.2329 28.2357 23.508 28.4219 23.7238C28.6081 23.9354 28.8577 24.0412 29.1709 24.0412C29.4756 24.0412 29.7189 23.9375 29.9009 23.7301C30.0828 23.5185 30.1738 23.2329 30.1738 22.8732V22.4035C30.1738 22.0692 30.0807 21.7962 29.8945 21.5846C29.7126 21.373 29.4671 21.2672 29.1582 21.2672C28.8577 21.2672 28.6123 21.373 28.4219 21.5846C28.2357 21.792 28.1426 22.0734 28.1426 22.4289V22.8986ZM24.937 23.9713L24.2705 23.5524L28.7837 16.3288L29.4502 16.7477L24.937 23.9713Z" fill="#171717"/>
<mask id="path-2-inside-1" fill="white">
<path d="M38.6358 20.1696C39.3892 20.1696 40.0048 20.7811 39.9535 21.5328C39.6986 25.2642 38.4013 28.8595 36.1964 31.9031C33.7241 35.3159 30.2368 37.8605 26.2325 39.1737C22.2281 40.4869 17.9112 40.5017 13.8979 39.216C9.88463 37.9302 6.38005 35.4096 3.88434 32.0138C1.38864 28.6181 0.0293454 24.5207 0.000469506 20.3066C-0.0284064 16.0925 1.27461 11.9769 3.72355 8.54732C6.17249 5.11769 9.64219 2.54927 13.6375 1.20862C17.2005 0.013001 21.0192 -0.151633 24.6565 0.719206C25.3892 0.89463 25.7891 1.66475 25.5641 2.3838C25.3392 3.10285 24.5747 3.49777 23.8401 3.33025C20.7536 2.62634 17.5233 2.78256 14.5054 3.79524C11.0552 4.953 8.05881 7.17104 5.94395 10.1328C3.82909 13.0946 2.70383 16.6487 2.72877 20.2879C2.75371 23.9272 3.92756 27.4655 6.08281 30.398C8.23806 33.3305 11.2646 35.5073 14.7303 36.6177C18.1961 37.7281 21.9241 37.7153 25.3822 36.5812C28.8403 35.4471 31.8518 33.2496 33.9869 30.3024C35.8545 27.7246 36.968 24.6883 37.2178 21.5324C37.2772 20.7813 37.8824 20.1696 38.6358 20.1696Z"/>
</mask>
<path d="M38.6358 20.1696C39.3892 20.1696 40.0048 20.7811 39.9535 21.5328C39.6986 25.2642 38.4013 28.8595 36.1964 31.9031C33.7241 35.3159 30.2368 37.8605 26.2325 39.1737C22.2281 40.4869 17.9112 40.5017 13.8979 39.216C9.88463 37.9302 6.38005 35.4096 3.88434 32.0138C1.38864 28.6181 0.0293454 24.5207 0.000469506 20.3066C-0.0284064 16.0925 1.27461 11.9769 3.72355 8.54732C6.17249 5.11769 9.64219 2.54927 13.6375 1.20862C17.2005 0.013001 21.0192 -0.151633 24.6565 0.719206C25.3892 0.89463 25.7891 1.66475 25.5641 2.3838C25.3392 3.10285 24.5747 3.49777 23.8401 3.33025C20.7536 2.62634 17.5233 2.78256 14.5054 3.79524C11.0552 4.953 8.05881 7.17104 5.94395 10.1328C3.82909 13.0946 2.70383 16.6487 2.72877 20.2879C2.75371 23.9272 3.92756 27.4655 6.08281 30.398C8.23806 33.3305 11.2646 35.5073 14.7303 36.6177C18.1961 37.7281 21.9241 37.7153 25.3822 36.5812C28.8403 35.4471 31.8518 33.2496 33.9869 30.3024C35.8545 27.7246 36.968 24.6883 37.2178 21.5324C37.2772 20.7813 37.8824 20.1696 38.6358 20.1696Z" stroke="#171717" stroke-width="4" mask="url(#path-2-inside-1)"/>
</svg>
