<svg width="22" height="22" viewBox="0 0 22 22" fill="none" xmlns="http://www.w3.org/2000/svg">
<path d="M14.5061 3.3403C11.3764 0.210621 6.28259 0.210621 3.15291 3.3403C0.0239012 6.47067 0.0239012 11.5638 3.15291 14.6941C5.93997 17.4805 10.2807 17.779 13.4083 15.6033C13.4741 15.9147 13.6248 16.2118 13.867 16.454L18.4248 21.0119C19.089 21.6747 20.1623 21.6747 20.8231 21.0119C21.4866 20.3483 21.4866 19.275 20.8231 18.6135L16.2653 14.0544C16.0244 13.8142 15.7266 13.6629 15.4152 13.5971C17.5923 10.4688 17.2938 6.12873 14.5061 3.3403ZM13.0671 13.2552C10.7305 15.5917 6.92779 15.5917 4.5919 13.2552C2.25668 10.9186 2.25668 7.11655 4.5919 4.77997C6.92779 2.44407 10.7305 2.44407 13.0671 4.77997C15.4037 7.11655 15.4037 10.9186 13.0671 13.2552Z" fill="#171717"/>
</svg>
