<svg width="475" height="267" viewBox="0 0 475 267" fill="none" xmlns="http://www.w3.org/2000/svg">
<path d="M23.7876 259.609L23.8169 260.313C24.2817 259.766 24.9087 259.492 25.6978 259.492C26.5845 259.492 27.188 259.832 27.5083 260.512C27.7192 260.207 27.9927 259.961 28.3286 259.774C28.6685 259.586 29.0688 259.492 29.5298 259.492C30.9204 259.492 31.6274 260.229 31.6509 261.701V265.949H30.5669V261.766C30.5669 261.313 30.4634 260.975 30.2563 260.752C30.0493 260.526 29.7017 260.412 29.2134 260.412C28.811 260.412 28.4771 260.533 28.2114 260.776C27.9458 261.014 27.7915 261.336 27.7485 261.742V265.949H26.6587V261.795C26.6587 260.873 26.2075 260.412 25.3052 260.412C24.5942 260.412 24.1079 260.715 23.8462 261.32V265.949H22.7622V259.609H23.7876ZM33.0044 262.721C33.0044 262.1 33.1255 261.541 33.3677 261.045C33.6138 260.549 33.9536 260.166 34.3872 259.897C34.8247 259.627 35.3228 259.492 35.8813 259.492C36.7446 259.492 37.4419 259.791 37.9731 260.389C38.5083 260.986 38.7759 261.781 38.7759 262.774V262.85C38.7759 263.467 38.6567 264.022 38.4185 264.514C38.1841 265.002 37.8462 265.383 37.4048 265.656C36.9673 265.93 36.4634 266.067 35.8931 266.067C35.0337 266.067 34.3364 265.768 33.8013 265.17C33.27 264.572 33.0044 263.781 33.0044 262.797V262.721ZM34.0942 262.85C34.0942 263.553 34.2563 264.117 34.5806 264.543C34.9087 264.969 35.3462 265.182 35.8931 265.182C36.4438 265.182 36.8813 264.967 37.2056 264.537C37.5298 264.104 37.6919 263.498 37.6919 262.721C37.6919 262.026 37.5259 261.463 37.1938 261.033C36.8657 260.6 36.4282 260.383 35.8813 260.383C35.3462 260.383 34.9146 260.596 34.5864 261.022C34.2583 261.447 34.0942 262.057 34.0942 262.85ZM41.1606 259.609L41.1958 260.406C41.6802 259.797 42.313 259.492 43.0942 259.492C44.4341 259.492 45.1099 260.248 45.1216 261.76V265.949H44.0376V261.754C44.0337 261.297 43.9282 260.959 43.7212 260.74C43.5181 260.522 43.1997 260.412 42.7661 260.412C42.4146 260.412 42.106 260.506 41.8403 260.693C41.5747 260.881 41.3677 261.127 41.2192 261.432V265.949H40.1353V259.609H41.1606Z" fill="#171717"/>
<path d="M8.26798 232.641C8.26798 233.91 8.05119 234.854 7.61759 235.471C7.184 236.088 6.50626 236.397 5.58439 236.397C4.67423 236.397 4.0004 236.096 3.5629 235.494C3.1254 234.889 2.89884 233.986 2.88322 232.787V231.34C2.88322 230.086 3.10001 229.154 3.53361 228.545C3.9672 227.936 4.64689 227.631 5.57267 227.631C6.49064 227.631 7.16642 227.926 7.60001 228.516C8.03361 229.102 8.25626 230.008 8.26798 231.234V232.641ZM7.184 231.158C7.184 230.24 7.05509 229.572 6.79728 229.154C6.53947 228.733 6.13126 228.522 5.57267 228.522C5.01798 228.522 4.61369 228.731 4.35978 229.149C4.10587 229.567 3.97501 230.209 3.9672 231.076V232.811C3.9672 233.733 4.10001 234.414 4.36564 234.856C4.63517 235.293 5.04142 235.512 5.58439 235.512C6.11954 235.512 6.51603 235.305 6.77384 234.891C7.03556 234.477 7.17228 233.824 7.184 232.934V231.158Z" fill="#171717"/>
<path d="M6.48087 191.353H5.39103V184.128L3.20548 184.931V183.947L6.31095 182.781H6.48087V191.353Z" fill="#171717"/>
<path d="M8.50822 146.427H2.91837V145.647L5.8715 142.366C6.309 141.87 6.60978 141.468 6.77384 141.159C6.94181 140.846 7.02579 140.524 7.02579 140.192C7.02579 139.747 6.89103 139.382 6.6215 139.096C6.35197 138.811 5.99259 138.669 5.54337 138.669C5.00431 138.669 4.58439 138.823 4.28361 139.132C3.98673 139.436 3.83829 139.862 3.83829 140.409H2.75431C2.75431 139.624 3.00626 138.989 3.51017 138.505C4.01798 138.02 4.69572 137.778 5.54337 137.778C6.33634 137.778 6.96329 137.987 7.42423 138.405C7.88517 138.819 8.11564 139.372 8.11564 140.063C8.11564 140.903 7.58048 141.903 6.51017 143.063L4.22501 145.542H8.50822V146.427Z" fill="#171717"/>
<path d="M4.49454 96.7071H5.309C5.82072 96.6993 6.22306 96.5645 6.51603 96.3028C6.809 96.0411 6.95548 95.6876 6.95548 95.2423C6.95548 94.2423 6.45744 93.7423 5.46134 93.7423C4.99259 93.7423 4.61759 93.877 4.33634 94.1466C4.059 94.4122 3.92033 94.7657 3.92033 95.2071H2.83634C2.83634 94.5313 3.08244 93.9708 3.57462 93.5255C4.07072 93.0763 4.69962 92.8517 5.46134 92.8517C6.26603 92.8517 6.89689 93.0645 7.35392 93.4903C7.81095 93.9161 8.03947 94.5079 8.03947 95.2657C8.03947 95.6368 7.91837 95.9962 7.67619 96.3438C7.4379 96.6915 7.11173 96.9513 6.69767 97.1231C7.16642 97.2716 7.52775 97.5177 7.78165 97.8614C8.03947 98.2052 8.16837 98.6251 8.16837 99.1212C8.16837 99.8868 7.91837 100.494 7.41837 100.943C6.91837 101.393 6.26798 101.617 5.4672 101.617C4.66642 101.617 4.01408 101.4 3.51017 100.967C3.01017 100.533 2.76017 99.961 2.76017 99.2501H3.85001C3.85001 99.6993 3.9965 100.059 4.28947 100.328C4.58244 100.598 4.97501 100.733 5.4672 100.733C5.99064 100.733 6.39103 100.596 6.66837 100.322C6.94572 100.049 7.08439 99.6563 7.08439 99.1446C7.08439 98.6485 6.93204 98.2677 6.62736 98.002C6.32267 97.7364 5.88322 97.5997 5.309 97.5919H4.49454V96.7071Z" fill="#171717"/>
<path d="M7.49454 53.7084H8.67814V54.5932H7.49454V56.5737H6.4047V54.5932H2.51994V53.9545L6.34025 48.0424H7.49454V53.7084ZM3.7504 53.7084H6.4047V49.5248L6.27579 49.7592L3.7504 53.7084Z" fill="#171717"/>
<path d="M3.41642 7.3699L3.85001 3.116H8.22111V4.11795H4.76994L4.51212 6.44412C4.93009 6.19803 5.4047 6.07498 5.93595 6.07498C6.71329 6.07498 7.33048 6.33279 7.78751 6.84842C8.24454 7.36014 8.47306 8.0535 8.47306 8.9285C8.47306 9.8074 8.23478 10.5008 7.75822 11.0086C7.28556 11.5125 6.62345 11.7644 5.77189 11.7644C5.01798 11.7644 4.40275 11.5555 3.92619 11.1375C3.44962 10.7195 3.17814 10.1414 3.11173 9.40311H4.13712C4.20353 9.89139 4.37736 10.2605 4.65861 10.5105C4.93986 10.7566 5.31095 10.8797 5.77189 10.8797C6.27579 10.8797 6.67033 10.7078 6.95548 10.364C7.24454 10.0203 7.38908 9.54568 7.38908 8.94022C7.38908 8.3699 7.23283 7.91287 6.92033 7.56912C6.61173 7.22147 6.19962 7.04764 5.684 7.04764C5.21134 7.04764 4.84025 7.15115 4.57072 7.35818L4.28361 7.59256L3.41642 7.3699Z" fill="#171717"/>
<path d="M96.2532 258.074V259.609H97.4368V260.447H96.2532V264.379C96.2532 264.633 96.3059 264.824 96.4114 264.953C96.5168 265.078 96.6965 265.141 96.9504 265.141C97.0754 265.141 97.2473 265.117 97.4661 265.07V265.949C97.1809 266.027 96.9036 266.067 96.634 266.067C96.1497 266.067 95.7844 265.92 95.5383 265.627C95.2922 265.334 95.1692 264.918 95.1692 264.379V260.447H94.0149V259.609H95.1692V258.074H96.2532ZM102.622 265.322C102.2 265.818 101.581 266.067 100.765 266.067C100.089 266.067 99.5735 265.871 99.218 265.481C98.8665 265.086 98.6887 264.504 98.6848 263.734V259.609H99.7688V263.705C99.7688 264.666 100.159 265.147 100.941 265.147C101.769 265.147 102.32 264.838 102.593 264.221V259.609H103.677V265.949H102.646L102.622 265.322ZM107.96 266.067C107.101 266.067 106.402 265.785 105.863 265.223C105.323 264.656 105.054 263.901 105.054 262.955V262.756C105.054 262.127 105.173 261.567 105.411 261.074C105.654 260.578 105.99 260.192 106.419 259.914C106.853 259.633 107.322 259.492 107.825 259.492C108.65 259.492 109.29 259.764 109.747 260.307C110.204 260.85 110.433 261.627 110.433 262.639V263.09H106.138C106.154 263.715 106.335 264.221 106.683 264.608C107.034 264.99 107.48 265.182 108.019 265.182C108.402 265.182 108.726 265.104 108.991 264.947C109.257 264.791 109.49 264.584 109.689 264.326L110.351 264.842C109.82 265.658 109.023 266.067 107.96 266.067ZM107.825 260.383C107.388 260.383 107.021 260.543 106.724 260.863C106.427 261.18 106.243 261.625 106.173 262.199H109.349V262.117C109.318 261.567 109.169 261.141 108.904 260.84C108.638 260.535 108.279 260.383 107.825 260.383Z" fill="#171717"/>
<path d="M164.28 264.455L165.498 259.609H166.582L164.737 265.949H163.858L162.317 261.145L160.817 265.949H159.938L158.098 259.609H159.176L160.424 264.356L161.901 259.609H162.774L164.28 264.455ZM170.321 266.067C169.461 266.067 168.762 265.785 168.223 265.223C167.684 264.656 167.414 263.901 167.414 262.955V262.756C167.414 262.127 167.533 261.567 167.772 261.074C168.014 260.578 168.35 260.192 168.78 259.914C169.213 259.633 169.682 259.492 170.186 259.492C171.01 259.492 171.651 259.764 172.108 260.307C172.565 260.85 172.793 261.627 172.793 262.639V263.09H168.498C168.514 263.715 168.696 264.221 169.043 264.608C169.395 264.99 169.84 265.182 170.379 265.182C170.762 265.182 171.086 265.104 171.352 264.947C171.617 264.791 171.85 264.584 172.049 264.326L172.711 264.842C172.18 265.658 171.383 266.067 170.321 266.067ZM170.186 260.383C169.748 260.383 169.381 260.543 169.084 260.863C168.787 261.18 168.604 261.625 168.533 262.199H171.709V262.117C171.678 261.567 171.53 261.141 171.264 260.84C170.998 260.535 170.639 260.383 170.186 260.383ZM173.789 262.727C173.789 261.754 174.02 260.973 174.481 260.383C174.942 259.789 175.545 259.492 176.291 259.492C177.033 259.492 177.621 259.746 178.055 260.254V256.949H179.139V265.949H178.143L178.09 265.27C177.656 265.801 177.053 266.067 176.28 266.067C175.545 266.067 174.946 265.766 174.481 265.164C174.02 264.563 173.789 263.777 173.789 262.809V262.727ZM174.873 262.85C174.873 263.568 175.022 264.131 175.319 264.537C175.615 264.943 176.026 265.147 176.549 265.147C177.237 265.147 177.739 264.838 178.055 264.221V261.309C177.731 260.711 177.233 260.412 176.561 260.412C176.03 260.412 175.615 260.617 175.319 261.027C175.022 261.438 174.873 262.045 174.873 262.85Z" fill="#171717"/>
<path d="M230.99 258.074V259.609H232.174V260.447H230.99V264.379C230.99 264.633 231.043 264.824 231.149 264.953C231.254 265.078 231.434 265.141 231.688 265.141C231.813 265.141 231.985 265.117 232.203 265.07V265.949C231.918 266.027 231.641 266.067 231.371 266.067C230.887 266.067 230.522 265.92 230.276 265.627C230.03 265.334 229.906 264.918 229.906 264.379V260.447H228.752V259.609H229.906V258.074H230.99ZM234.53 260.377C235.01 259.787 235.635 259.492 236.405 259.492C237.744 259.492 238.42 260.248 238.432 261.76V265.949H237.348V261.754C237.344 261.297 237.239 260.959 237.031 260.74C236.828 260.522 236.51 260.412 236.076 260.412C235.725 260.412 235.416 260.506 235.151 260.693C234.885 260.881 234.678 261.127 234.53 261.432V265.949H233.446V256.949H234.53V260.377ZM243.969 265.322C243.547 265.818 242.928 266.067 242.112 266.067C241.436 266.067 240.92 265.871 240.565 265.481C240.213 265.086 240.035 264.504 240.031 263.734V259.609H241.115V263.705C241.115 264.666 241.506 265.147 242.287 265.147C243.115 265.147 243.666 264.838 243.94 264.221V259.609H245.024V265.949H243.992L243.969 265.322Z" fill="#171717"/>
<path d="M293.937 265.949V260.447H292.935V259.609H293.937V258.959C293.937 258.279 294.118 257.754 294.482 257.383C294.845 257.012 295.359 256.826 296.023 256.826C296.273 256.826 296.521 256.859 296.767 256.926L296.708 257.805C296.525 257.77 296.329 257.752 296.122 257.752C295.771 257.752 295.499 257.856 295.308 258.063C295.116 258.266 295.021 258.559 295.021 258.942V259.609H296.374V260.447H295.021V265.949H293.937ZM300.64 260.582C300.476 260.555 300.298 260.541 300.107 260.541C299.396 260.541 298.913 260.844 298.659 261.449V265.949H297.575V259.609H298.63L298.648 260.342C299.003 259.776 299.507 259.492 300.159 259.492C300.37 259.492 300.531 259.52 300.64 259.574V260.582ZM302.82 265.949H301.736V259.609H302.82V265.949ZM301.648 257.928C301.648 257.752 301.7 257.604 301.806 257.483C301.915 257.361 302.075 257.301 302.286 257.301C302.497 257.301 302.657 257.361 302.767 257.483C302.876 257.604 302.931 257.752 302.931 257.928C302.931 258.104 302.876 258.25 302.767 258.367C302.657 258.484 302.497 258.543 302.286 258.543C302.075 258.543 301.915 258.484 301.806 258.367C301.7 258.25 301.648 258.104 301.648 257.928Z" fill="#171717"/>
<path d="M354.01 264.268C354.01 263.975 353.898 263.748 353.676 263.588C353.457 263.424 353.072 263.283 352.521 263.166C351.975 263.049 351.539 262.908 351.215 262.744C350.895 262.58 350.656 262.385 350.5 262.158C350.348 261.932 350.271 261.662 350.271 261.35C350.271 260.83 350.49 260.391 350.928 260.031C351.369 259.672 351.932 259.492 352.615 259.492C353.334 259.492 353.916 259.678 354.361 260.049C354.811 260.42 355.035 260.895 355.035 261.473H353.945C353.945 261.176 353.818 260.92 353.564 260.705C353.314 260.49 352.998 260.383 352.615 260.383C352.221 260.383 351.912 260.469 351.689 260.641C351.467 260.813 351.355 261.037 351.355 261.315C351.355 261.576 351.459 261.774 351.666 261.906C351.873 262.039 352.246 262.166 352.785 262.287C353.328 262.408 353.768 262.553 354.104 262.721C354.439 262.889 354.688 263.092 354.848 263.33C355.012 263.565 355.094 263.852 355.094 264.192C355.094 264.758 354.867 265.213 354.414 265.557C353.961 265.897 353.373 266.067 352.65 266.067C352.143 266.067 351.693 265.977 351.303 265.797C350.912 265.617 350.605 265.367 350.383 265.047C350.164 264.723 350.055 264.373 350.055 263.998H351.139C351.158 264.361 351.303 264.651 351.572 264.865C351.846 265.076 352.205 265.182 352.65 265.182C353.061 265.182 353.389 265.1 353.635 264.936C353.885 264.768 354.01 264.545 354.01 264.268ZM360.42 265.949C360.357 265.824 360.307 265.602 360.268 265.281C359.764 265.805 359.162 266.067 358.463 266.067C357.838 266.067 357.324 265.891 356.922 265.539C356.523 265.184 356.324 264.734 356.324 264.192C356.324 263.531 356.574 263.02 357.074 262.656C357.578 262.289 358.285 262.106 359.195 262.106H360.25V261.608C360.25 261.229 360.137 260.928 359.91 260.705C359.684 260.479 359.35 260.365 358.908 260.365C358.521 260.365 358.197 260.463 357.936 260.658C357.674 260.854 357.543 261.09 357.543 261.367H356.453C356.453 261.051 356.564 260.746 356.787 260.453C357.014 260.156 357.318 259.922 357.701 259.75C358.088 259.578 358.512 259.492 358.973 259.492C359.703 259.492 360.275 259.676 360.689 260.043C361.104 260.406 361.318 260.908 361.334 261.549V264.467C361.334 265.049 361.408 265.512 361.557 265.856V265.949H360.42ZM358.621 265.123C358.961 265.123 359.283 265.035 359.588 264.859C359.893 264.684 360.113 264.455 360.25 264.174V262.873H359.4C358.072 262.873 357.408 263.262 357.408 264.039C357.408 264.379 357.521 264.645 357.748 264.836C357.975 265.027 358.266 265.123 358.621 265.123ZM364.504 258.074V259.609H365.688V260.447H364.504V264.379C364.504 264.633 364.557 264.824 364.662 264.953C364.768 265.078 364.947 265.141 365.201 265.141C365.326 265.141 365.498 265.117 365.717 265.07V265.949C365.432 266.027 365.154 266.067 364.885 266.067C364.4 266.067 364.035 265.92 363.789 265.627C363.543 265.334 363.42 264.918 363.42 264.379V260.447H362.266V259.609H363.42V258.074H364.504Z" fill="#171717"/>
<path d="M417.893 264.268C417.893 263.975 417.782 263.748 417.559 263.588C417.341 263.424 416.956 263.283 416.405 263.166C415.858 263.049 415.423 262.908 415.098 262.744C414.778 262.58 414.54 262.385 414.384 262.158C414.231 261.932 414.155 261.662 414.155 261.35C414.155 260.83 414.374 260.391 414.811 260.031C415.253 259.672 415.815 259.492 416.499 259.492C417.218 259.492 417.8 259.678 418.245 260.049C418.694 260.42 418.919 260.895 418.919 261.473H417.829C417.829 261.176 417.702 260.92 417.448 260.705C417.198 260.49 416.882 260.383 416.499 260.383C416.104 260.383 415.796 260.469 415.573 260.641C415.35 260.813 415.239 261.037 415.239 261.315C415.239 261.576 415.343 261.774 415.55 261.906C415.757 262.039 416.13 262.166 416.669 262.287C417.212 262.408 417.651 262.553 417.987 262.721C418.323 262.889 418.571 263.092 418.731 263.33C418.895 263.565 418.977 263.852 418.977 264.192C418.977 264.758 418.751 265.213 418.298 265.557C417.844 265.897 417.257 266.067 416.534 266.067C416.026 266.067 415.577 265.977 415.186 265.797C414.796 265.617 414.489 265.367 414.266 265.047C414.048 264.723 413.938 264.373 413.938 263.998H415.022C415.042 264.361 415.186 264.651 415.456 264.865C415.729 265.076 416.089 265.182 416.534 265.182C416.944 265.182 417.272 265.1 417.518 264.936C417.768 264.768 417.893 264.545 417.893 264.268ZM424.303 265.322C423.882 265.818 423.262 266.067 422.446 266.067C421.77 266.067 421.255 265.871 420.899 265.481C420.548 265.086 420.37 264.504 420.366 263.734V259.609H421.45V263.705C421.45 264.666 421.841 265.147 422.622 265.147C423.45 265.147 424.001 264.838 424.274 264.221V259.609H425.358V265.949H424.327L424.303 265.322ZM428.036 259.609L428.071 260.406C428.555 259.797 429.188 259.492 429.969 259.492C431.309 259.492 431.985 260.248 431.997 261.76V265.949H430.913V261.754C430.909 261.297 430.803 260.959 430.596 260.74C430.393 260.522 430.075 260.412 429.641 260.412C429.29 260.412 428.981 260.506 428.716 260.693C428.45 260.881 428.243 261.127 428.094 261.432V265.949H427.01V259.609H428.036Z" fill="#171717"/>
<path d="M35.1379 234H426.138" stroke="#FAFAFA"/>
<path d="M35.1689 189H426.169" stroke="#FAFAFA"/>
<path d="M35.1379 144H426.138" stroke="#FAFAFA"/>
<path d="M35.1379 99H426.138" stroke="#FAFAFA"/>
<path d="M35.1379 54H426.138" stroke="#FAFAFA"/>
<path d="M35.1379 9H426.138" stroke="#FAFAFA"/>
<g filter="url(#filter0_d)">
<path d="M110.781 166.199C110.781 169.252 108.305 171.728 105.252 171.728C102.198 171.728 99.723 169.252 99.723 166.199C99.723 163.145 102.198 160.67 105.252 160.67C108.305 160.67 110.781 163.145 110.781 166.199Z" fill="#171717"/>
</g>
<g opacity="0.3" filter="url(#filter1_f)">
<path fill-rule="evenodd" clip-rule="evenodd" d="M94.0361 138.684H129.372C131.581 138.684 133.372 140.475 133.372 142.684V152.542C133.372 154.752 131.581 156.542 129.372 156.542H116.195L115.546 157.066C115.4 157.184 115.19 157.184 115.044 157.066L114.396 156.542H94.0361C91.827 156.542 90.0361 154.752 90.0361 152.542V142.684C90.0361 140.475 91.827 138.684 94.0361 138.684Z" fill="#171717"/>
</g>
<path fill-rule="evenodd" clip-rule="evenodd" d="M83.9319 129.281H125.932C128.141 129.281 129.932 131.071 129.932 133.281V147.281C129.932 149.49 128.141 151.281 125.932 151.281H111.932L105.192 157.057C105.042 157.186 104.821 157.186 104.672 157.057L97.9319 151.281H83.9319C81.7227 151.281 79.9319 149.49 79.9319 147.281V133.281C79.9319 131.071 81.7227 129.281 83.9319 129.281Z" fill="white"/>
<path d="M95.9772 144.281V136.997H95.8834L93.7331 138.556V137.443L95.9831 135.826H97.0319V144.281H95.9772ZM100.191 146.431H99.312L99.8745 143.097H101.058L100.191 146.431ZM105.629 144.48C104.828 144.48 104.166 144.255 103.643 143.806C103.119 143.353 102.834 142.761 102.787 142.031H103.824C103.871 142.488 104.061 142.857 104.393 143.138C104.729 143.415 105.145 143.554 105.641 143.554C106.207 143.554 106.662 143.376 107.006 143.021C107.354 142.665 107.528 142.199 107.528 141.62C107.528 141.042 107.354 140.574 107.006 140.214C106.662 139.851 106.213 139.669 105.658 139.669C105.276 139.669 104.932 139.753 104.627 139.921C104.323 140.085 104.084 140.318 103.912 140.618H102.922L103.385 135.826H108.102V136.769H104.211L103.971 139.482H104.065C104.475 139.001 105.071 138.761 105.852 138.761C106.656 138.761 107.313 139.025 107.821 139.552C108.328 140.079 108.582 140.759 108.582 141.591C108.582 142.451 108.309 143.148 107.762 143.683C107.215 144.214 106.504 144.48 105.629 144.48ZM110.534 144.281V135.456H111.542V138.96H111.636C111.796 138.605 112.04 138.331 112.368 138.14C112.7 137.949 113.105 137.853 113.581 137.853C114.253 137.853 114.784 138.06 115.175 138.474C115.565 138.884 115.761 139.456 115.761 140.191V144.281H114.753V140.437C114.753 139.32 114.267 138.761 113.294 138.761C112.739 138.761 112.308 138.923 111.999 139.247C111.694 139.568 111.542 139.999 111.542 140.542V144.281H110.534Z" fill="#171717"/>
<g filter="url(#filter2_d)">
<path d="M178.149 122.752C178.149 125.805 175.674 128.281 172.62 128.281C169.567 128.281 167.091 125.805 167.091 122.752C167.091 119.698 169.567 117.223 172.62 117.223C175.674 117.223 178.149 119.698 178.149 122.752Z" fill="#171717"/>
</g>
<g opacity="0.3" filter="url(#filter3_f)">
<path fill-rule="evenodd" clip-rule="evenodd" d="M161.404 95.237H196.74C198.949 95.237 200.74 97.0279 200.74 99.237V109.095C200.74 111.304 198.949 113.095 196.74 113.095H183.563L182.915 113.619C182.768 113.737 182.559 113.737 182.412 113.619L181.764 113.095H161.404C159.195 113.095 157.404 111.304 157.404 109.095V99.237C157.404 97.0279 159.195 95.237 161.404 95.237Z" fill="#171717"/>
</g>
<path fill-rule="evenodd" clip-rule="evenodd" d="M151.3 85.8333H193.3C195.509 85.8333 197.3 87.6241 197.3 89.8333V103.833C197.3 106.042 195.509 107.833 193.3 107.833H179.3L172.56 113.61C172.411 113.739 172.19 113.739 172.04 113.61L165.3 107.833H151.3C149.091 107.833 147.3 106.042 147.3 103.833V89.8333C147.3 87.6241 149.091 85.8333 151.3 85.8333Z" fill="white"/>
<path d="M160.386 94.7571C160.386 94.0071 160.64 93.3899 161.148 92.9055C161.66 92.4212 162.308 92.179 163.093 92.179C163.851 92.179 164.486 92.4075 164.998 92.8645C165.513 93.3177 165.771 93.8802 165.771 94.552C165.771 94.9934 165.646 95.427 165.396 95.8528C165.146 96.2786 164.675 96.8626 163.984 97.6048L161.951 99.7903V99.8841H165.912V100.833H160.439V100.107L163.363 96.9134C163.906 96.3235 164.267 95.8743 164.447 95.5657C164.627 95.2571 164.716 94.9329 164.716 94.593C164.716 94.1712 164.556 93.8177 164.236 93.5325C163.92 93.2434 163.529 93.0989 163.064 93.0989C162.568 93.0989 162.168 93.2513 161.863 93.5559C161.558 93.8606 161.406 94.261 161.406 94.7571V94.763H160.386V94.7571ZM168.444 102.984H167.565L168.127 99.6497H169.311L168.444 102.984ZM173.882 101.033C173.081 101.033 172.419 100.808 171.896 100.359C171.372 99.9055 171.087 99.3138 171.04 98.5833H172.077C172.124 99.0403 172.314 99.4095 172.646 99.6907C172.982 99.968 173.398 100.107 173.894 100.107C174.46 100.107 174.915 99.929 175.259 99.5735C175.607 99.218 175.78 98.7513 175.78 98.1731C175.78 97.595 175.607 97.1263 175.259 96.7669C174.915 96.4036 174.466 96.222 173.911 96.222C173.529 96.222 173.185 96.3059 172.88 96.4739C172.575 96.638 172.337 96.8704 172.165 97.1712H171.175L171.638 92.3782H176.355V93.3216H172.464L172.224 96.0345H172.318C172.728 95.554 173.323 95.3138 174.105 95.3138C174.909 95.3138 175.566 95.5774 176.073 96.1048C176.581 96.6321 176.835 97.3118 176.835 98.1438C176.835 99.0032 176.562 99.7005 176.015 100.236C175.468 100.767 174.757 101.033 173.882 101.033ZM178.787 100.833V92.0091H179.795V95.513H179.889C180.049 95.1575 180.293 94.8841 180.621 94.6927C180.953 94.5013 181.357 94.4055 181.834 94.4055C182.506 94.4055 183.037 94.6126 183.428 95.0266C183.818 95.4368 184.014 96.0091 184.014 96.7434V100.833H183.006V96.9895C183.006 95.8723 182.52 95.3138 181.547 95.3138C180.992 95.3138 180.561 95.4759 180.252 95.8001C179.947 96.1204 179.795 96.552 179.795 97.095V100.833H178.787Z" fill="#171717"/>
<g filter="url(#filter4_d)">
<path d="M305.917 53.0437C305.917 56.0973 303.442 58.5727 300.388 58.5727C297.335 58.5727 294.859 56.0973 294.859 53.0437C294.859 49.9902 297.335 47.5148 300.388 47.5148C303.442 47.5148 305.917 49.9902 305.917 53.0437Z" fill="#171717"/>
</g>
<g opacity="0.3" filter="url(#filter5_f)">
<path fill-rule="evenodd" clip-rule="evenodd" d="M289.172 25.5291H324.508C326.718 25.5291 328.508 27.32 328.508 29.5291V39.3873C328.508 41.5964 326.718 43.3873 324.508 43.3873H311.331L310.683 43.9108C310.536 44.0292 310.327 44.0292 310.18 43.9108L309.532 43.3873H289.172C286.963 43.3873 285.172 41.5964 285.172 39.3873V29.5291C285.172 27.32 286.963 25.5291 289.172 25.5291Z" fill="#171717"/>
</g>
<path fill-rule="evenodd" clip-rule="evenodd" d="M279.068 16.1254H321.068C323.277 16.1254 325.068 17.9163 325.068 20.1254V34.1254C325.068 36.3345 323.277 38.1254 321.068 38.1254H307.068L300.328 43.9023C300.179 44.0307 299.958 44.0307 299.808 43.9023L293.068 38.1254H279.068C276.859 38.1254 275.068 36.3345 275.068 34.1254V20.1254C275.068 17.9163 276.859 16.1254 279.068 16.1254Z" fill="white"/>
<path d="M297.249 31.1254V29.3734H293.13V28.4125C293.903 27.0375 295.11 25.1234 296.751 22.6703H298.28V28.4301H299.481V29.3734H298.28V31.1254H297.249ZM294.208 28.3656V28.4359H297.255V23.6488H297.185C296.27 24.977 295.278 26.5492 294.208 28.3656ZM301.375 31.1254V22.3012H302.383V25.8051H302.476C302.636 25.4496 302.881 25.1762 303.209 24.9848C303.541 24.7934 303.945 24.6977 304.422 24.6977C305.094 24.6977 305.625 24.9047 306.015 25.3188C306.406 25.7289 306.601 26.3012 306.601 27.0356V31.1254H305.594V27.2816C305.594 26.1645 305.107 25.6059 304.135 25.6059C303.58 25.6059 303.148 25.768 302.84 26.0922C302.535 26.4125 302.383 26.8441 302.383 27.3871V31.1254H301.375Z" fill="#171717"/>
<path d="M34.4067 233.469C34.0254 233.868 34.0402 234.501 34.4397 234.883C34.8392 235.264 35.4722 235.249 35.8535 234.85L34.4067 233.469ZM240.342 190.798C246.756 190.798 251.921 188.549 256.08 184.622C260.214 180.718 263.32 175.194 265.735 168.678C270.558 155.661 272.734 138.36 274.613 121.21C276.501 103.988 278.091 86.9225 281.696 74.1435C283.498 67.7572 285.777 62.5466 288.771 58.9473C291.734 55.3862 295.39 53.4041 300.066 53.4041V51.4041C294.715 51.4041 290.522 53.7156 287.234 57.6682C283.977 61.5827 281.604 67.106 279.771 73.6004C276.109 86.5827 274.503 103.866 272.625 120.992C270.74 138.19 268.582 155.238 263.859 167.983C261.501 174.347 258.532 179.557 254.707 183.167C250.909 186.754 246.232 188.798 240.342 188.798V190.798ZM300.066 53.4041C309.392 53.4041 315.178 56.1833 319.295 60.2662C323.469 64.4074 326.001 69.9495 328.679 75.7124C331.325 81.4082 334.112 87.3097 338.827 91.7535C343.594 96.2452 350.243 99.1779 360.469 99.1779V97.1779C350.673 97.1779 344.54 94.3889 340.199 90.298C335.807 86.1592 333.163 80.6173 330.492 74.8696C327.853 69.1891 325.181 63.2878 320.703 58.8463C316.167 54.3467 309.852 51.4041 300.066 51.4041V53.4041ZM360.469 99.1779C379.994 99.1779 390.114 110.208 398.403 121.51C402.517 127.121 406.256 132.918 410.416 137.246C414.619 141.618 419.401 144.66 425.704 144.66V142.66C420.149 142.66 415.853 140.016 411.858 135.86C407.82 131.66 404.24 126.087 400.016 120.327C391.626 108.889 380.986 97.1779 360.469 97.1779V99.1779ZM172.876 123.09C180.473 123.09 186.486 127.088 191.771 133.316C197.073 139.565 201.527 147.924 206.02 156.412C210.486 164.847 214.991 173.414 220.359 179.859C225.743 186.322 232.117 190.798 240.342 190.798V188.798C232.952 188.798 227.087 184.811 221.896 178.579C216.689 172.328 212.283 163.968 207.788 155.476C203.321 147.037 198.766 138.469 193.296 132.022C187.809 125.555 181.288 121.09 172.876 121.09V123.09ZM35.8535 234.85C39.5439 230.983 43.679 224.801 48.2776 217.814C52.8997 210.792 58.0265 202.897 63.747 195.476C75.2385 180.569 88.866 167.933 105.161 167.933V165.933C87.8234 165.933 73.6645 179.336 62.1631 194.255C56.3872 201.748 51.216 209.712 46.607 216.715C41.9744 223.753 37.9453 229.761 34.4067 233.469L35.8535 234.85ZM105.161 167.933C116.313 167.933 124.279 165.077 130.425 160.743C136.546 156.428 140.794 150.691 144.574 145.069C148.389 139.397 151.682 133.926 155.968 129.819C160.192 125.771 165.349 123.09 172.876 123.09V121.09C164.774 121.09 159.135 124.014 154.584 128.375C150.097 132.675 146.638 138.415 142.914 143.953C139.155 149.543 135.076 155.017 129.273 159.109C123.494 163.183 115.939 165.933 105.161 165.933V167.933Z" fill="#171717"/>
<g filter="url(#filter6_d)">
<path d="M40.7967 232.24C40.7967 235.294 38.3213 237.769 35.2677 237.769C32.2142 237.769 29.7388 235.294 29.7388 232.24C29.7388 229.187 32.2142 226.711 35.2677 226.711C38.3213 226.711 40.7967 229.187 40.7967 232.24Z" fill="#171717"/>
</g>
<g opacity="0.3" filter="url(#filter7_f)">
<path fill-rule="evenodd" clip-rule="evenodd" d="M24.052 204.726H59.3881C61.5972 204.726 63.3881 206.516 63.3881 208.726V218.584C63.3881 220.793 61.5972 222.584 59.3881 222.584H46.2105L45.5624 223.107C45.4157 223.226 45.2063 223.226 45.0597 223.107L44.4115 222.584H24.052C21.8429 222.584 20.052 220.793 20.052 218.584V208.726C20.052 206.516 21.8429 204.726 24.052 204.726Z" fill="#171717"/>
</g>
<path fill-rule="evenodd" clip-rule="evenodd" d="M13.9478 195.322H55.9478C58.1569 195.322 59.9478 197.113 59.9478 199.322V213.322C59.9478 215.531 58.1569 217.322 55.9478 217.322H41.9478L35.2081 223.099C35.0583 223.227 34.8372 223.227 34.6874 223.099L27.9478 217.322H13.9478C11.7386 217.322 9.94775 215.531 9.94775 213.322V199.322C9.94775 197.113 11.7386 195.322 13.9478 195.322Z" fill="white"/>
<path d="M31.1911 210.521C30.238 210.521 29.4997 210.134 28.9763 209.361C28.4528 208.588 28.1911 207.498 28.1911 206.091C28.1911 204.697 28.4548 203.611 28.9821 202.834C29.5095 202.056 30.2458 201.668 31.1911 201.668C32.1325 201.668 32.8649 202.058 33.3884 202.839C33.9157 203.621 34.1794 204.711 34.1794 206.109C34.1794 207.511 33.9177 208.597 33.3942 209.367C32.8747 210.136 32.1403 210.521 31.1911 210.521ZM29.7497 208.693C30.0856 209.298 30.5661 209.601 31.1911 209.601C31.8161 209.601 32.2927 209.3 32.6208 208.699C32.9528 208.093 33.1188 207.224 33.1188 206.091C33.1188 204.97 32.9509 204.107 32.6149 203.502C32.2829 202.896 31.8083 202.593 31.1911 202.593C30.5739 202.593 30.0954 202.898 29.7556 203.507C29.4196 204.113 29.2517 204.974 29.2517 206.091C29.2517 207.22 29.4177 208.088 29.7497 208.693ZM36.1724 210.322V201.498H37.1802V205.002H37.2739C37.4341 204.646 37.6782 204.373 38.0063 204.181C38.3384 203.99 38.7427 203.894 39.2192 203.894C39.8911 203.894 40.4224 204.101 40.813 204.515C41.2036 204.925 41.3989 205.498 41.3989 206.232V210.322H40.3911V206.478C40.3911 205.361 39.9048 204.802 38.9321 204.802C38.3774 204.802 37.9458 204.964 37.6372 205.289C37.3325 205.609 37.1802 206.041 37.1802 206.584V210.322H36.1724Z" fill="#171717"/>
<g filter="url(#filter8_d)">
<path d="M245.518 189.478C245.518 192.531 243.042 195.006 239.989 195.006C236.935 195.006 234.46 192.531 234.46 189.478C234.46 186.424 236.935 183.949 239.989 183.949C243.042 183.949 245.518 186.424 245.518 189.478Z" fill="#171717"/>
</g>
<g opacity="0.3" filter="url(#filter9_f)">
<path fill-rule="evenodd" clip-rule="evenodd" d="M228.773 161.963H264.109C266.318 161.963 268.109 163.754 268.109 165.963V175.821C268.109 178.03 266.318 179.821 264.109 179.821H250.932L250.284 180.345C250.137 180.463 249.927 180.463 249.781 180.345L249.133 179.821H228.773C226.564 179.821 224.773 178.03 224.773 175.821V165.963C224.773 163.754 226.564 161.963 228.773 161.963Z" fill="#171717"/>
</g>
<path fill-rule="evenodd" clip-rule="evenodd" d="M218.669 152.559H260.669C262.878 152.559 264.669 154.35 264.669 156.559V170.559C264.669 172.768 262.878 174.559 260.669 174.559H246.669L239.929 180.336C239.779 180.464 239.558 180.464 239.409 180.336L232.669 174.559H218.669C216.46 174.559 214.669 172.768 214.669 170.559V156.559C214.669 154.35 216.46 152.559 218.669 152.559Z" fill="white"/>
<path d="M236.071 167.559V160.276H235.977L233.826 161.835V160.721L236.076 159.104H237.125V167.559H236.071ZM239.915 167.559V158.735H240.923V162.239H241.017C241.177 161.883 241.421 161.61 241.749 161.419C242.081 161.227 242.485 161.131 242.962 161.131C243.634 161.131 244.165 161.338 244.556 161.753C244.946 162.163 245.142 162.735 245.142 163.469V167.559H244.134V163.715C244.134 162.598 243.647 162.04 242.675 162.04C242.12 162.04 241.688 162.202 241.38 162.526C241.075 162.846 240.923 163.278 240.923 163.821V167.559H239.915Z" fill="#171717"/>
<g filter="url(#filter10_d)">
<path d="M366.317 98.0591C366.317 101.113 363.841 103.588 360.788 103.588C357.734 103.588 355.259 101.113 355.259 98.0591C355.259 95.0056 357.734 92.5302 360.788 92.5302C363.841 92.5302 366.317 95.0056 366.317 98.0591Z" fill="#171717"/>
</g>
<g opacity="0.3" filter="url(#filter11_f)">
<path fill-rule="evenodd" clip-rule="evenodd" d="M349.572 70.5445H384.908C387.117 70.5445 388.908 72.3354 388.908 74.5445V84.4027C388.908 86.6118 387.117 88.4027 384.908 88.4027H371.73L371.082 88.9262C370.935 89.0446 370.726 89.0446 370.579 88.9262L369.931 88.4027H349.572C347.363 88.4027 345.572 86.6118 345.572 84.4027V74.5445C345.572 72.3354 347.363 70.5445 349.572 70.5445Z" fill="#171717"/>
</g>
<path fill-rule="evenodd" clip-rule="evenodd" d="M339.468 61.1408H381.468C383.677 61.1408 385.468 62.9316 385.468 65.1408V79.1408C385.468 81.3499 383.677 83.1408 381.468 83.1408H367.468L360.728 88.9176C360.578 89.046 360.357 89.046 360.207 88.9176L353.468 83.1408H339.468C337.258 83.1408 335.468 81.3499 335.468 79.1408V65.1408C335.468 62.9316 337.258 61.1408 339.468 61.1408Z" fill="white"/>
<path d="M355.615 72.2443V71.3419H356.641C357.121 71.3419 357.514 71.2013 357.818 70.9201C358.127 70.6388 358.281 70.2794 358.281 69.8419C358.281 69.4123 358.133 69.0666 357.836 68.8048C357.539 68.5392 357.146 68.4064 356.658 68.4064C356.17 68.4064 355.775 68.5353 355.475 68.7931C355.174 69.047 355.002 69.4005 354.959 69.8537H353.934C353.988 69.1193 354.262 68.5412 354.754 68.1193C355.246 67.6974 355.894 67.4865 356.699 67.4865C357.184 67.4865 357.629 67.5861 358.035 67.7853C358.445 67.9806 358.768 68.2482 359.002 68.588C359.236 68.9279 359.353 69.299 359.353 69.7013C359.353 70.2052 359.223 70.631 358.961 70.9787C358.699 71.3263 358.336 71.5568 357.871 71.6701V71.7638C358.445 71.838 358.896 72.0627 359.225 72.4377C359.553 72.8087 359.717 73.2834 359.717 73.8615C359.717 74.5568 359.43 75.1447 358.855 75.6252C358.281 76.1017 357.576 76.34 356.74 76.34C355.881 76.34 355.18 76.1212 354.637 75.6837C354.094 75.2423 353.803 74.6603 353.764 73.9377H354.783C354.83 74.3869 355.029 74.7462 355.381 75.0158C355.732 75.2853 356.182 75.4201 356.728 75.4201C357.283 75.4201 357.738 75.2716 358.094 74.9748C358.453 74.6779 358.633 74.297 358.633 73.8322C358.633 73.3439 358.459 72.9572 358.111 72.672C357.764 72.3869 357.289 72.2443 356.687 72.2443H355.615ZM361.675 76.1408V67.3166H362.682V70.8205H362.776C362.936 70.465 363.18 70.1916 363.509 70.0002C363.841 69.8087 364.245 69.713 364.721 69.713C365.393 69.713 365.925 69.9201 366.315 70.3341C366.706 70.7443 366.901 71.3166 366.901 72.0509V76.1408H365.893V72.297C365.893 71.1798 365.407 70.6212 364.434 70.6212C363.88 70.6212 363.448 70.7834 363.139 71.1076C362.835 71.4279 362.682 71.8595 362.682 72.4025V76.1408H361.675Z" fill="#171717"/>
<g filter="url(#filter12_d)">
<path d="M431.942 144.277C431.942 147.33 429.467 149.806 426.414 149.806C423.36 149.806 420.885 147.33 420.885 144.277C420.885 141.223 423.36 138.748 426.414 138.748C429.467 138.748 431.942 141.223 431.942 144.277Z" fill="#171717"/>
</g>
<g opacity="0.3" filter="url(#filter13_f)">
<path fill-rule="evenodd" clip-rule="evenodd" d="M415.198 116.762H450.534C452.743 116.762 454.534 118.553 454.534 120.762V130.62C454.534 132.829 452.743 134.62 450.534 134.62H437.356L436.708 135.144C436.561 135.262 436.352 135.262 436.205 135.144L435.557 134.62H415.198C412.989 134.62 411.198 132.829 411.198 130.62V120.762C411.198 118.553 412.989 116.762 415.198 116.762Z" fill="#171717"/>
</g>
<path fill-rule="evenodd" clip-rule="evenodd" d="M405.094 107.358H447.094C449.303 107.358 451.094 109.149 451.094 111.358V125.358C451.094 127.567 449.303 129.358 447.094 129.358H433.094L426.354 135.135C426.204 135.264 425.983 135.264 425.833 135.135L419.094 129.358H405.094C402.884 129.358 401.094 127.567 401.094 125.358V111.358C401.094 109.149 402.884 107.358 405.094 107.358Z" fill="white"/>
<path d="M419.595 116.282C419.595 115.532 419.849 114.915 420.356 114.431C420.868 113.946 421.517 113.704 422.302 113.704C423.06 113.704 423.694 113.933 424.206 114.39C424.722 114.843 424.979 115.405 424.979 116.077C424.979 116.518 424.854 116.952 424.604 117.378C424.354 117.804 423.884 118.388 423.192 119.13L421.159 121.315V121.409H425.12V122.358H419.647V121.632L422.571 118.438C423.114 117.849 423.476 117.399 423.655 117.091C423.835 116.782 423.925 116.458 423.925 116.118C423.925 115.696 423.765 115.343 423.444 115.058C423.128 114.768 422.737 114.624 422.272 114.624C421.776 114.624 421.376 114.776 421.071 115.081C420.767 115.386 420.614 115.786 420.614 116.282V116.288H419.595V116.282ZM427.166 122.358V113.534H428.174V117.038H428.267C428.427 116.683 428.672 116.409 429 116.218C429.332 116.026 429.736 115.931 430.213 115.931C430.885 115.931 431.416 116.138 431.806 116.552C432.197 116.962 432.392 117.534 432.392 118.268V122.358H431.385V118.515C431.385 117.397 430.898 116.839 429.926 116.839C429.371 116.839 428.939 117.001 428.631 117.325C428.326 117.645 428.174 118.077 428.174 118.62V122.358H427.166Z" fill="#171717"/>
<defs>
<filter id="filter0_d" x="97.723" y="159.67" width="15.0578" height="15.0578" filterUnits="userSpaceOnUse" color-interpolation-filters="sRGB">
<feFlood flood-opacity="0" result="BackgroundImageFix"/>
<feColorMatrix in="SourceAlpha" type="matrix" values="0 0 0 0 0 0 0 0 0 0 0 0 0 0 0 0 0 0 127 0"/>
<feOffset dy="1"/>
<feGaussianBlur stdDeviation="1"/>
<feColorMatrix type="matrix" values="0 0 0 0 0.215686 0 0 0 0 0.317647 0 0 0 0 1 0 0 0 0.2 0"/>
<feBlend mode="normal" in2="BackgroundImageFix" result="effect1_dropShadow"/>
<feBlend mode="normal" in="SourceGraphic" in2="effect1_dropShadow" result="shape"/>
</filter>
<filter id="filter1_f" x="70.0361" y="118.684" width="83.3361" height="58.4705" filterUnits="userSpaceOnUse" color-interpolation-filters="sRGB">
<feFlood flood-opacity="0" result="BackgroundImageFix"/>
<feBlend mode="normal" in="SourceGraphic" in2="BackgroundImageFix" result="shape"/>
<feGaussianBlur stdDeviation="10" result="effect1_foregroundBlur"/>
</filter>
<filter id="filter2_d" x="165.091" y="116.223" width="15.0578" height="15.0578" filterUnits="userSpaceOnUse" color-interpolation-filters="sRGB">
<feFlood flood-opacity="0" result="BackgroundImageFix"/>
<feColorMatrix in="SourceAlpha" type="matrix" values="0 0 0 0 0 0 0 0 0 0 0 0 0 0 0 0 0 0 127 0"/>
<feOffset dy="1"/>
<feGaussianBlur stdDeviation="1"/>
<feColorMatrix type="matrix" values="0 0 0 0 0.215686 0 0 0 0 0.317647 0 0 0 0 1 0 0 0 0.2 0"/>
<feBlend mode="normal" in2="BackgroundImageFix" result="effect1_dropShadow"/>
<feBlend mode="normal" in="SourceGraphic" in2="effect1_dropShadow" result="shape"/>
</filter>
<filter id="filter3_f" x="137.404" y="75.237" width="83.3361" height="58.4705" filterUnits="userSpaceOnUse" color-interpolation-filters="sRGB">
<feFlood flood-opacity="0" result="BackgroundImageFix"/>
<feBlend mode="normal" in="SourceGraphic" in2="BackgroundImageFix" result="shape"/>
<feGaussianBlur stdDeviation="10" result="effect1_foregroundBlur"/>
</filter>
<filter id="filter4_d" x="292.859" y="46.5148" width="15.0578" height="15.0578" filterUnits="userSpaceOnUse" color-interpolation-filters="sRGB">
<feFlood flood-opacity="0" result="BackgroundImageFix"/>
<feColorMatrix in="SourceAlpha" type="matrix" values="0 0 0 0 0 0 0 0 0 0 0 0 0 0 0 0 0 0 127 0"/>
<feOffset dy="1"/>
<feGaussianBlur stdDeviation="1"/>
<feColorMatrix type="matrix" values="0 0 0 0 0.215686 0 0 0 0 0.317647 0 0 0 0 1 0 0 0 0.2 0"/>
<feBlend mode="normal" in2="BackgroundImageFix" result="effect1_dropShadow"/>
<feBlend mode="normal" in="SourceGraphic" in2="effect1_dropShadow" result="shape"/>
</filter>
<filter id="filter5_f" x="265.172" y="5.52912" width="83.3361" height="58.4705" filterUnits="userSpaceOnUse" color-interpolation-filters="sRGB">
<feFlood flood-opacity="0" result="BackgroundImageFix"/>
<feBlend mode="normal" in="SourceGraphic" in2="BackgroundImageFix" result="shape"/>
<feGaussianBlur stdDeviation="10" result="effect1_foregroundBlur"/>
</filter>
<filter id="filter6_d" x="27.7388" y="225.711" width="15.0578" height="15.0578" filterUnits="userSpaceOnUse" color-interpolation-filters="sRGB">
<feFlood flood-opacity="0" result="BackgroundImageFix"/>
<feColorMatrix in="SourceAlpha" type="matrix" values="0 0 0 0 0 0 0 0 0 0 0 0 0 0 0 0 0 0 127 0"/>
<feOffset dy="1"/>
<feGaussianBlur stdDeviation="1"/>
<feColorMatrix type="matrix" values="0 0 0 0 0.215686 0 0 0 0 0.317647 0 0 0 0 1 0 0 0 0.2 0"/>
<feBlend mode="normal" in2="BackgroundImageFix" result="effect1_dropShadow"/>
<feBlend mode="normal" in="SourceGraphic" in2="effect1_dropShadow" result="shape"/>
</filter>
<filter id="filter7_f" x="0.052002" y="184.726" width="83.3361" height="58.4705" filterUnits="userSpaceOnUse" color-interpolation-filters="sRGB">
<feFlood flood-opacity="0" result="BackgroundImageFix"/>
<feBlend mode="normal" in="SourceGraphic" in2="BackgroundImageFix" result="shape"/>
<feGaussianBlur stdDeviation="10" result="effect1_foregroundBlur"/>
</filter>
<filter id="filter8_d" x="232.46" y="182.949" width="15.0578" height="15.0578" filterUnits="userSpaceOnUse" color-interpolation-filters="sRGB">
<feFlood flood-opacity="0" result="BackgroundImageFix"/>
<feColorMatrix in="SourceAlpha" type="matrix" values="0 0 0 0 0 0 0 0 0 0 0 0 0 0 0 0 0 0 127 0"/>
<feOffset dy="1"/>
<feGaussianBlur stdDeviation="1"/>
<feColorMatrix type="matrix" values="0 0 0 0 0.215686 0 0 0 0 0.317647 0 0 0 0 1 0 0 0 0.2 0"/>
<feBlend mode="normal" in2="BackgroundImageFix" result="effect1_dropShadow"/>
<feBlend mode="normal" in="SourceGraphic" in2="effect1_dropShadow" result="shape"/>
</filter>
<filter id="filter9_f" x="204.773" y="141.963" width="83.3361" height="58.4705" filterUnits="userSpaceOnUse" color-interpolation-filters="sRGB">
<feFlood flood-opacity="0" result="BackgroundImageFix"/>
<feBlend mode="normal" in="SourceGraphic" in2="BackgroundImageFix" result="shape"/>
<feGaussianBlur stdDeviation="10" result="effect1_foregroundBlur"/>
</filter>
<filter id="filter10_d" x="353.259" y="91.5302" width="15.0578" height="15.0578" filterUnits="userSpaceOnUse" color-interpolation-filters="sRGB">
<feFlood flood-opacity="0" result="BackgroundImageFix"/>
<feColorMatrix in="SourceAlpha" type="matrix" values="0 0 0 0 0 0 0 0 0 0 0 0 0 0 0 0 0 0 127 0"/>
<feOffset dy="1"/>
<feGaussianBlur stdDeviation="1"/>
<feColorMatrix type="matrix" values="0 0 0 0 0.215686 0 0 0 0 0.317647 0 0 0 0 1 0 0 0 0.2 0"/>
<feBlend mode="normal" in2="BackgroundImageFix" result="effect1_dropShadow"/>
<feBlend mode="normal" in="SourceGraphic" in2="effect1_dropShadow" result="shape"/>
</filter>
<filter id="filter11_f" x="325.572" y="50.5445" width="83.3361" height="58.4705" filterUnits="userSpaceOnUse" color-interpolation-filters="sRGB">
<feFlood flood-opacity="0" result="BackgroundImageFix"/>
<feBlend mode="normal" in="SourceGraphic" in2="BackgroundImageFix" result="shape"/>
<feGaussianBlur stdDeviation="10" result="effect1_foregroundBlur"/>
</filter>
<filter id="filter12_d" x="418.885" y="137.748" width="15.0578" height="15.0578" filterUnits="userSpaceOnUse" color-interpolation-filters="sRGB">
<feFlood flood-opacity="0" result="BackgroundImageFix"/>
<feColorMatrix in="SourceAlpha" type="matrix" values="0 0 0 0 0 0 0 0 0 0 0 0 0 0 0 0 0 0 127 0"/>
<feOffset dy="1"/>
<feGaussianBlur stdDeviation="1"/>
<feColorMatrix type="matrix" values="0 0 0 0 0.215686 0 0 0 0 0.317647 0 0 0 0 1 0 0 0 0.2 0"/>
<feBlend mode="normal" in2="BackgroundImageFix" result="effect1_dropShadow"/>
<feBlend mode="normal" in="SourceGraphic" in2="effect1_dropShadow" result="shape"/>
</filter>
<filter id="filter13_f" x="391.198" y="96.7621" width="83.3361" height="58.4705" filterUnits="userSpaceOnUse" color-interpolation-filters="sRGB">
<feFlood flood-opacity="0" result="BackgroundImageFix"/>
<feBlend mode="normal" in="SourceGraphic" in2="BackgroundImageFix" result="shape"/>
<feGaussianBlur stdDeviation="10" result="effect1_foregroundBlur"/>
</filter>
</defs>
</svg>
