<svg width="16" height="17" viewBox="0 0 16 17" fill="none" xmlns="http://www.w3.org/2000/svg">
<path d="M8 0.634033C3.58862 0.634033 0 4.22266 0 8.63403C0 13.0454 3.58862 16.634 8 16.634C12.4114 16.634 16 13.0454 16 8.63403C16 4.22266 12.4114 0.634033 8 0.634033ZM11.8047 12.772C11.6747 12.902 11.504 12.9674 11.3334 12.9674C11.1627 12.9674 10.9919 12.902 10.8621 12.772L7.52869 9.43872C7.40332 9.31409 7.33337 9.14465 7.33337 8.96741V4.63403C7.33337 4.26538 7.63196 3.96741 8 3.96741C8.36804 3.96741 8.66663 4.26538 8.66663 4.63403V8.69141L11.8047 11.8293C12.0653 12.0901 12.0653 12.5114 11.8047 12.772Z" fill="#171717"/>
</svg>
