<svg width="67" height="68" viewBox="0 0 67 68" fill="none" xmlns="http://www.w3.org/2000/svg">
<path d="M2 33.625C2 16.159 16.2412 2 33.8085 2C37.0463 2 40.1712 2.48098 43.1147 3.375" stroke="#2FDAC5" stroke-width="4" stroke-linecap="round" stroke-linejoin="round"/>
<mask id="path-2-inside-1" fill="white">
<path fill-rule="evenodd" clip-rule="evenodd" d="M26.9628 40.4308C30.7434 44.1896 36.873 44.1896 40.6536 40.4308C44.4342 36.672 60.0846 10.25 58.7017 8.875C57.3187 7.5 30.7434 23.0602 26.9628 26.819C23.1822 30.5778 23.1822 36.672 26.9628 40.4308ZM33.8081 36.375C35.3356 36.375 36.574 35.1438 36.574 33.625C36.574 32.1062 35.3356 30.875 33.8081 30.875C32.2805 30.875 31.0421 32.1062 31.0421 33.625C31.0421 35.1438 32.2805 36.375 33.8081 36.375Z"/>
</mask>
<path fill-rule="evenodd" clip-rule="evenodd" d="M26.9628 40.4308C30.7434 44.1896 36.873 44.1896 40.6536 40.4308C44.4342 36.672 60.0846 10.25 58.7017 8.875C57.3187 7.5 30.7434 23.0602 26.9628 26.819C23.1822 30.5778 23.1822 36.672 26.9628 40.4308ZM33.8081 36.375C35.3356 36.375 36.574 35.1438 36.574 33.625C36.574 32.1062 35.3356 30.875 33.8081 30.875C32.2805 30.875 31.0421 32.1062 31.0421 33.625C31.0421 35.1438 32.2805 36.375 33.8081 36.375Z" fill="#2FDAC5"/>
<path d="M40.6536 40.4308L39.9486 39.7217V39.7217L40.6536 40.4308ZM26.9628 40.4308L27.6679 39.7217H27.6679L26.9628 40.4308ZM58.7017 8.875L57.9966 9.58415V9.58415L58.7017 8.875ZM26.9628 26.819L27.6679 27.5282H27.6679L26.9628 26.819ZM39.9486 39.7217C36.558 43.0927 31.0584 43.0927 27.6679 39.7217L26.2578 41.14C30.4284 45.2866 37.188 45.2866 41.3587 41.14L39.9486 39.7217ZM57.9966 9.58415C57.8144 9.40302 57.7917 9.21401 57.7894 9.19476C57.7857 9.16359 57.7921 9.18034 57.779 9.26962C57.7532 9.44535 57.6787 9.73095 57.5349 10.1397C57.2513 10.9461 56.7587 12.0647 56.0981 13.4185C54.7813 16.1169 52.8498 19.6427 50.7494 23.2565C48.6504 26.8678 46.392 30.5508 44.4258 33.561C42.435 36.6088 40.8051 38.8701 39.9486 39.7217L41.3587 41.14C42.3924 40.1122 44.1365 37.6612 46.1003 34.6547C48.0886 31.6107 50.3652 27.8975 52.4786 24.2615C54.5904 20.628 56.5486 17.0556 57.8955 14.2957C58.5666 12.9203 59.0993 11.7197 59.4216 10.8033C59.5808 10.3507 59.7044 9.92396 59.7578 9.55974C59.7843 9.37906 59.8006 9.16893 59.7752 8.9569C59.7512 8.75678 59.6753 8.43292 59.4067 8.16585L57.9966 9.58415ZM27.6679 27.5282C28.5246 26.6764 30.7994 25.0556 33.8649 23.0763C36.8927 21.1213 40.5972 18.8759 44.2295 16.7889C47.8643 14.7006 51.4108 12.7801 54.1252 11.4708C55.4869 10.8139 56.6125 10.3239 57.4243 10.0416C57.8357 9.8986 58.124 9.82413 58.3023 9.79829C58.3928 9.78517 58.4114 9.79136 58.3821 9.78789C58.3655 9.78593 58.1779 9.76442 57.9966 9.58415L59.4067 8.16585C59.139 7.89964 58.8157 7.82527 58.6172 7.80177C58.4061 7.77676 58.1964 7.79274 58.0154 7.81897C57.6506 7.87184 57.2225 7.99435 56.7675 8.15255C55.8465 8.47276 54.6394 9.00217 53.2562 9.66941C50.4806 11.0083 46.8877 12.9551 43.2332 15.0548C39.5763 17.1558 35.8417 19.4193 32.7801 21.3961C29.7562 23.3485 27.2913 25.0823 26.2578 26.1099L27.6679 27.5282ZM27.6679 39.7217C24.2805 36.3539 24.2805 30.896 27.6679 27.5282L26.2578 26.1099C22.0839 30.2597 22.0839 36.9902 26.2578 41.14L27.6679 39.7217ZM35.574 33.625C35.574 34.5861 34.7888 35.375 33.8081 35.375V37.375C35.8825 37.375 37.574 35.7015 37.574 33.625H35.574ZM33.8081 31.875C34.7888 31.875 35.574 32.6639 35.574 33.625H37.574C37.574 31.5485 35.8825 29.875 33.8081 29.875V31.875ZM32.0421 33.625C32.0421 32.6639 32.8273 31.875 33.8081 31.875V29.875C31.7336 29.875 30.0421 31.5485 30.0421 33.625H32.0421ZM33.8081 35.375C32.8273 35.375 32.0421 34.5861 32.0421 33.625H30.0421C30.0421 35.7015 31.7336 37.375 33.8081 37.375V35.375Z" fill="#2FDAC5" mask="url(#path-2-inside-1)"/>
<path d="M8.4149 50.125C8.4149 51.3649 7.40312 52.375 6.14894 52.375C4.89475 52.375 3.88298 51.3649 3.88298 50.125C3.88298 48.8851 4.89475 47.875 6.14894 47.875C7.40312 47.875 8.4149 48.8851 8.4149 50.125Z" fill="#2FDAC5" stroke="#2FDAC5"/>
<path d="M19.4787 61.125C19.4787 62.3649 18.467 63.375 17.2128 63.375C15.9586 63.375 14.9468 62.3649 14.9468 61.125C14.9468 59.8851 15.9586 58.875 17.2128 58.875C18.467 58.875 19.4787 59.8851 19.4787 61.125Z" fill="#2FDAC5" stroke="#2FDAC5"/>
<path d="M36.0745 65.25C36.0745 66.4899 35.0627 67.5 33.8085 67.5C32.5543 67.5 31.5426 66.4899 31.5426 65.25C31.5426 64.0101 32.5543 63 33.8085 63C35.0627 63 36.0745 64.0101 36.0745 65.25Z" fill="#2FDAC5" stroke="#2FDAC5"/>
<path d="M52.6702 61.125C52.6702 62.3649 51.6584 63.375 50.4043 63.375C49.1501 63.375 48.1383 62.3649 48.1383 61.125C48.1383 59.8851 49.1501 58.875 50.4043 58.875C51.6584 58.875 52.6702 59.8851 52.6702 61.125Z" fill="#2FDAC5" stroke="#2FDAC5"/>
<path d="M62.3511 50.125C62.3511 51.3649 61.3393 52.375 60.0851 52.375C58.8309 52.375 57.8192 51.3649 57.8192 50.125C57.8192 48.8851 58.8309 47.875 60.0851 47.875C61.3393 47.875 62.3511 48.8851 62.3511 50.125Z" fill="#2FDAC5" stroke="#2FDAC5"/>
<path d="M66.5 33.625C66.5 34.8649 65.4882 35.875 64.234 35.875C62.9799 35.875 61.9681 34.8649 61.9681 33.625C61.9681 32.3851 62.9799 31.375 64.234 31.375C65.4882 31.375 66.5 32.3851 66.5 33.625Z" fill="#2FDAC5" stroke="#2FDAC5"/>
</svg>
